<?xml version="1.0" encoding="UTF-8" standalone="no"?>
<!-- Created with Inkscape (http://www.inkscape.org/) -->

<svg
   xmlns:dc="http://purl.org/dc/elements/1.1/"
   xmlns:cc="http://creativecommons.org/ns#"
   xmlns:rdf="http://www.w3.org/1999/02/22-rdf-syntax-ns#"
   xmlns:svg="http://www.w3.org/2000/svg"
   xmlns="http://www.w3.org/2000/svg"
   xmlns:sodipodi="http://sodipodi.sourceforge.net/DTD/sodipodi-0.dtd"
   xmlns:inkscape="http://www.inkscape.org/namespaces/inkscape"
   width="2125.9841"
   height="1062.9921"
   id="svg2"
   version="1.1"
   inkscape:version="0.48.4 r9939"
   sodipodi:docname="aylacruizer2.svg">
  <defs
     id="defs4">
    <symbol
       id="*Paper_Space0" />
    <symbol
       id="*Paper_Space" />
    <symbol
       id="*Model_Space" />
    <pattern
       id="Hatch"
       x="0"
       y="0"
       patternUnits="userSpaceOnUse"
       width="8"
       height="8">
      <path
         id="path3000"
         d="M8 4 l-4,4"
         stroke-width="0.25"
         stroke="#000000"
         linecap="square" />
      <path
         id="path3002"
         d="M6 2 l-4,4"
         stroke-width="0.25"
         stroke="#000000"
         linecap="square" />
      <path
         id="path3004"
         d="M4 0 l-4,4"
         stroke-width="0.25"
         stroke="#000000"
         linecap="square" />
    </pattern>
    <marker
       orient="auto"
       id="DistanceX"
       style="overflow:visible"
       refX="0"
       refY="0">
      <path
         id="path2997"
         d="M 3,-3 -3,3 M 0,-5 0,5"
         style="stroke:#000000;stroke-width:0.5"
         inkscape:connector-curvature="0" />
    </marker>
    <symbol
       id="*Paper_Space0-9" />
    <symbol
       id="*Paper_Space-0" />
    <symbol
       id="*Model_Space-4" />
    <pattern
       id="Hatch-7"
       x="0"
       y="0"
       patternUnits="userSpaceOnUse"
       width="8"
       height="8">
      <path
         id="path5005"
         d="M8 4 l-4,4"
         stroke-width="0.25"
         stroke="#000000"
         linecap="square" />
      <path
         id="path5007"
         d="M6 2 l-4,4"
         stroke-width="0.25"
         stroke="#000000"
         linecap="square" />
      <path
         id="path5009"
         d="M4 0 l-4,4"
         stroke-width="0.25"
         stroke="#000000"
         linecap="square" />
    </pattern>
    <marker
       orient="auto"
       id="DistanceX-1"
       style="overflow:visible"
       refX="0"
       refY="0">
      <path
         id="path5002"
         d="M 3,-3 -3,3 M 0,-5 0,5"
         style="stroke:#000000;stroke-width:0.5"
         inkscape:connector-curvature="0" />
    </marker>
    <symbol
       id="*Paper_Space0-4" />
    <symbol
       id="*Paper_Space-9" />
    <symbol
       id="*Model_Space-0" />
    <pattern
       id="Hatch-4"
       x="0"
       y="0"
       patternUnits="userSpaceOnUse"
       width="8"
       height="8">
      <path
         id="path3666"
         d="M8 4 l-4,4"
         stroke-width="0.25"
         stroke="#000000"
         linecap="square" />
      <path
         id="path3668"
         d="M6 2 l-4,4"
         stroke-width="0.25"
         stroke="#000000"
         linecap="square" />
      <path
         id="path3670"
         d="M4 0 l-4,4"
         stroke-width="0.25"
         stroke="#000000"
         linecap="square" />
    </pattern>
    <marker
       orient="auto"
       id="DistanceX-17"
       style="overflow:visible"
       refX="0.0"
       refY="0.0">
      <path
         id="path3663"
         d="M 3,-3 L -3,3 M 0,-5 L  0,5"
         style="stroke:#000000; stroke-width:0.5" />
    </marker>
  </defs>
  <sodipodi:namedview
     id="base"
     pagecolor="#ffffff"
     bordercolor="#666666"
     borderopacity="1.0"
     inkscape:pageopacity="0.0"
     inkscape:pageshadow="2"
     inkscape:zoom="1"
     inkscape:cx="883.24228"
     inkscape:cy="484.37227"
     inkscape:document-units="mm"
     inkscape:current-layer="g7008"
     showgrid="false"
     units="mm"
     inkscape:window-width="1920"
     inkscape:window-height="1056"
     inkscape:window-x="0"
     inkscape:window-y="24"
     inkscape:window-maximized="1">
    <inkscape:grid
       type="xygrid"
       id="grid6836"
       empspacing="5"
       visible="true"
       enabled="true"
       snapvisiblegridlinesonly="true" />
  </sodipodi:namedview>
  <metadata
     id="metadata7">
    <rdf:RDF>
      <cc:Work
         rdf:about="">
        <dc:format>image/svg+xml</dc:format>
        <dc:type
           rdf:resource="http://purl.org/dc/dcmitype/StillImage" />
        <dc:title></dc:title>
      </cc:Work>
    </rdf:RDF>
  </metadata>
  <g
     inkscape:label="Laag 1"
     inkscape:groupmode="layer"
     id="layer1"
     transform="translate(0,10.630169)">
    <g
       transform="matrix(1.25,0,0,-1.25,270.41424,-2898.0698)"
       inkscape:label="box_20120810_152115_782344"
       id="g7008">
      <path
         style="fill:none;fill-opacity:1;stroke:#ff0000;stroke-opacity:1;stroke-width:0.35433071;stroke-miterlimit:4;stroke-dasharray:none"
         d="M 17.71875 17.71875 L 17.71875 53.15625 L 28.34375 53.15625 L 28.34375 88.59375 L 17.71875 88.59375 L 17.71875 124 L 28.34375 124 L 28.34375 159.4375 L 17.71875 159.4375 L 17.71875 194.875 L 28.34375 194.875 L 28.34375 230.3125 L 17.71875 230.3125 L 17.71875 265.75 L 28.34375 265.75 L 28.34375 301.1875 L 17.71875 301.1875 L 17.71875 336.625 L 70.875 336.625 L 70.875 325.96875 L 106.3125 325.96875 L 106.3125 336.625 L 141.71875 336.625 L 141.71875 325.96875 L 177.15625 325.96875 L 177.15625 336.625 L 212.59375 336.625 L 212.59375 325.96875 L 248.03125 325.96875 L 248.03125 336.625 L 283.46875 336.625 L 283.46875 325.96875 L 318.90625 325.96875 L 318.90625 336.625 L 354.34375 336.625 L 354.34375 325.96875 L 389.75 325.96875 L 389.75 336.625 L 425.1875 336.625 L 425.1875 325.96875 L 460.625 325.96875 L 460.625 336.625 L 513.78125 336.625 L 513.78125 301.1875 L 503.15625 301.1875 L 503.15625 265.75 L 513.78125 265.75 L 513.78125 230.3125 L 503.15625 230.3125 L 503.15625 194.875 L 513.78125 194.875 L 513.78125 159.4375 L 503.15625 159.4375 L 503.15625 124 L 513.78125 124 L 513.78125 88.59375 L 503.15625 88.59375 L 503.15625 53.15625 L 513.78125 53.15625 L 513.78125 17.71875 L 460.625 17.71875 L 460.625 28.34375 L 425.1875 28.34375 L 425.1875 17.71875 L 389.75 17.71875 L 389.75 28.34375 L 354.34375 28.34375 L 354.34375 17.71875 L 318.90625 17.71875 L 318.90625 28.34375 L 283.46875 28.34375 L 283.46875 17.71875 L 248.03125 17.71875 L 248.03125 28.34375 L 212.59375 28.34375 L 212.59375 17.71875 L 177.15625 17.71875 L 177.15625 28.34375 L 141.71875 28.34375 L 141.71875 17.71875 L 106.3125 17.71875 L 106.3125 28.34375 L 70.875 28.34375 L 70.875 17.71875 L 17.71875 17.71875 z "
         id="rect6720"
         transform="matrix(0.8,0,0,-0.8,-216.33139,-2309.9517)" />
      <path
         sodipodi:type="arc"
         style="fill:none;stroke:#ff0000;stroke-width:0.38008934;stroke-miterlimit:4;stroke-opacity:1;stroke-dasharray:none"
         id="path6716"
         sodipodi:cx="95.812965"
         sodipodi:cy="110.87279"
         sodipodi:rx="7.4246211"
         sodipodi:ry="7.4246211"
         d="m 103.23759,110.87279 a 7.4246211,7.4246211 0 1 1 -14.849246,0 7.4246211,7.4246211 0 1 1 14.849246,0 z"
         transform="matrix(0.74452268,0,0,-0.74452268,-253.65057,-2261.4201)" />
      <rect
         style="fill:none;stroke:#000000;stroke-width:0.2265753;stroke-miterlimit:4;stroke-opacity:1;stroke-dasharray:none"
         id="rect5923"
         width="339.93091"
         height="212.37186"
         x="-173.69841"
         y="2345.498"
         transform="scale(1,-1)"
         ry="11.326499"
         rx="11.331031" />
      <path
         sodipodi:type="arc"
         style="fill:none;stroke:#ff0000;stroke-width:0.38008934;stroke-miterlimit:4;stroke-opacity:1;stroke-dasharray:none"
         id="path6716-9"
         sodipodi:cx="95.812965"
         sodipodi:cy="110.87279"
         sodipodi:rx="7.4246211"
         sodipodi:ry="7.4246211"
         d="m 103.23759,110.87279 a 7.4246211,7.4246211 0 1 1 -14.849246,0 7.4246211,7.4246211 0 1 1 14.849246,0 z"
         transform="matrix(0.74452268,0,0,-0.74452268,-253.65057,-2476.8532)" />
      <path
         sodipodi:type="arc"
         style="fill:none;stroke:#ff0000;stroke-width:0.38008934;stroke-miterlimit:4;stroke-opacity:1;stroke-dasharray:none"
         id="path6716-7"
         sodipodi:cx="95.812965"
         sodipodi:cy="110.87279"
         sodipodi:rx="7.4246211"
         sodipodi:ry="7.4246211"
         d="m 103.23759,110.87279 a 7.4246211,7.4246211 0 1 1 -14.849246,0 7.4246211,7.4246211 0 1 1 14.849246,0 z"
         transform="matrix(0.74452268,0,0,-0.74452268,103.51478,-2261.4201)" />
      <path
         sodipodi:type="arc"
         style="fill:none;stroke:#ff0000;stroke-width:0.38008934;stroke-miterlimit:4;stroke-opacity:1;stroke-dasharray:none"
         id="path6716-9-3"
         sodipodi:cx="95.812965"
         sodipodi:cy="110.87279"
         sodipodi:rx="7.4246211"
         sodipodi:ry="7.4246211"
         d="m 103.23759,110.87279 a 7.4246211,7.4246211 0 1 1 -14.849246,0 7.4246211,7.4246211 0 1 1 14.849246,0 z"
         transform="matrix(0.74452268,0,0,-0.74452268,103.51478,-2476.8532)" />
      <path
         style="fill:none;fill-opacity:1;stroke:#ff0000;stroke-opacity:1;stroke-width:0.35433071;stroke-miterlimit:4;stroke-dasharray:none"
         d="M 70.875 361.40625 L 70.875 372.0625 L 17.71875 372.0625 L 17.71875 389.75 L 28.34375 389.75 L 28.34375 425.1875 L 17.71875 425.1875 L 17.71875 442.90625 L 70.875 442.90625 L 70.875 453.53125 L 106.3125 453.53125 L 106.3125 442.90625 L 141.71875 442.90625 L 141.71875 453.53125 L 177.15625 453.53125 L 177.15625 442.90625 L 212.59375 442.90625 L 212.59375 453.53125 L 248.03125 453.53125 L 248.03125 442.90625 L 283.46875 442.90625 L 283.46875 453.53125 L 318.90625 453.53125 L 318.90625 442.90625 L 354.34375 442.90625 L 354.34375 453.53125 L 389.75 453.53125 L 389.75 442.90625 L 425.1875 442.90625 L 425.1875 453.53125 L 460.625 453.53125 L 460.625 442.90625 L 513.78125 442.90625 L 513.78125 425.1875 L 503.15625 425.1875 L 503.15625 389.75 L 513.78125 389.75 L 513.78125 372.0625 L 389.75 372.0625 L 389.75 361.40625 L 354.34375 361.40625 L 354.34375 372.0625 L 248.03125 372.0625 L 248.03125 361.40625 L 212.59375 361.40625 L 212.59375 372.0625 L 106.3125 372.0625 L 106.3125 361.40625 L 70.875 361.40625 z "
         transform="matrix(0.8,0,0,-0.8,-216.33139,-2309.9517)"
         id="rect6997-8" />
      <path
         style="fill:none;fill-opacity:1;stroke:#ff0000;stroke-opacity:1;stroke-width:0.35433071;stroke-miterlimit:4;stroke-dasharray:none"
         d="M 566.9375 17.71875 L 566.9375 28.34375 L 549.21875 28.34375 L 549.21875 124 L 538.59375 124 L 538.59375 159.4375 L 549.21875 159.4375 L 549.21875 265.75 L 538.59375 265.75 L 538.59375 301.1875 L 549.21875 301.1875 L 549.21875 325.96875 L 566.9375 325.96875 L 566.9375 336.625 L 602.375 336.625 L 602.375 325.96875 L 620.09375 325.96875 L 620.09375 301.1875 L 630.71875 301.1875 L 630.71875 265.75 L 620.09375 265.75 L 620.09375 230.3125 L 630.71875 230.3125 L 630.71875 194.875 L 620.09375 194.875 L 620.09375 159.4375 L 630.71875 159.4375 L 630.71875 124 L 620.09375 124 L 620.09375 88.59375 L 630.71875 88.59375 L 630.71875 53.15625 L 620.09375 53.15625 L 620.09375 28.34375 L 602.375 28.34375 L 602.375 17.71875 L 566.9375 17.71875 z "
         transform="matrix(0.8,0,0,-0.8,-216.33139,-2309.9517)"
         id="rect6997-0" />
      <path
         style="fill:none;fill-opacity:1;stroke:#ff0000;stroke-opacity:1;stroke-width:0.35433071;stroke-miterlimit:4;stroke-dasharray:none"
         d="M 141.71875 467.71875 L 141.71875 478.34375 L 17.71875 478.34375 L 17.71875 496.0625 L 28.34375 496.0625 L 28.34375 531.5 L 17.71875 531.5 L 17.71875 549.21875 L 70.875 549.21875 L 70.875 559.84375 L 106.3125 559.84375 L 106.3125 549.21875 L 141.71875 549.21875 L 141.71875 559.84375 L 177.15625 559.84375 L 177.15625 549.21875 L 212.59375 549.21875 L 212.59375 559.84375 L 248.03125 559.84375 L 248.03125 549.21875 L 283.46875 549.21875 L 283.46875 559.84375 L 318.90625 559.84375 L 318.90625 549.21875 L 354.34375 549.21875 L 354.34375 559.84375 L 389.75 559.84375 L 389.75 549.21875 L 425.1875 549.21875 L 425.1875 559.84375 L 460.625 559.84375 L 460.625 549.21875 L 513.78125 549.21875 L 513.78125 531.5 L 503.15625 531.5 L 503.15625 496.0625 L 513.78125 496.0625 L 513.78125 478.34375 L 460.625 478.34375 L 460.625 467.71875 L 425.1875 467.71875 L 425.1875 478.34375 L 318.90625 478.34375 L 318.90625 467.71875 L 283.46875 467.71875 L 283.46875 478.34375 L 177.15625 478.34375 L 177.15625 467.71875 L 141.71875 467.71875 z "
         transform="matrix(0.8,0,0,-0.8,-216.33139,-2309.9517)"
         id="rect6997-8-6" />
      <path
         style="fill:none;fill-opacity:1;stroke:#ff0000;stroke-opacity:1;stroke-width:0.35433071;stroke-miterlimit:4;stroke-dasharray:none"
         d="M 669.6875 17.71875 L 669.6875 28.34375 L 651.96875 28.34375 L 651.96875 53.15625 L 641.34375 53.15625 L 641.34375 88.59375 L 651.96875 88.59375 L 651.96875 194.875 L 641.34375 194.875 L 641.34375 230.3125 L 651.96875 230.3125 L 651.96875 325.96875 L 669.6875 325.96875 L 669.6875 336.625 L 705.125 336.625 L 705.125 325.96875 L 722.84375 325.96875 L 722.84375 301.1875 L 733.46875 301.1875 L 733.46875 265.75 L 722.84375 265.75 L 722.84375 230.3125 L 733.46875 230.3125 L 733.46875 194.875 L 722.84375 194.875 L 722.84375 159.4375 L 733.46875 159.4375 L 733.46875 124 L 722.84375 124 L 722.84375 88.59375 L 733.46875 88.59375 L 733.46875 53.15625 L 722.84375 53.15625 L 722.84375 28.34375 L 705.125 28.34375 L 705.125 17.71875 L 669.6875 17.71875 z "
         transform="matrix(0.8,0,0,-0.8,-216.33139,-2309.9517)"
         id="rect6997-0-5" />
      <path
         inkscape:connector-curvature="0"
         style="fill:none;fill-opacity:1;stroke:#ff0000;stroke-opacity:1;stroke-width:0.28346457;stroke-miterlimit:4;stroke-dasharray:none"
         d="m 401.62313,-2329.796 0,-28.35 8.5,0 0,-28.35 -8.5,0 0,-28.325 8.5,0 0,-28.35 -8.5,0 0,-28.35 8.5,0 0,-28.35 -8.5,0 0,-28.35 8.5,0 0,-28.35 -8.5,0 0,-28.35 42.525,0 0,8.525 28.35,0 0,-8.525 28.325,0 0,8.525 28.35,0 0,-8.525 28.35,0 0,8.525 28.35,0 0,-8.525 28.35,0 0,8.525 28.35,0 0,-8.525 28.35,0 0,8.525 28.325,0 0,-8.525 28.35,0 0,8.525 28.35,0 0,-8.525 42.525,0 0,28.35 -8.5,0 0,28.35 8.5,0 0,28.35 -8.5,0 0,28.35 8.5,0 0,28.35 -8.5,0 0,28.35 8.5,0 0,28.325 -8.5,0 0,28.35 8.5,0 0,28.35 -42.525,0 0,-8.5 -28.35,0 0,8.5 -28.35,0 0,-8.5 -28.325,0 0,8.5 -28.35,0 0,-8.5 -28.35,0 0,8.5 -28.35,0 0,-8.5 -28.35,0 0,8.5 -28.35,0 0,-8.5 -28.35,0 0,8.5 -28.325,0 0,-8.5 -28.35,0 0,8.5 -42.525,0 z"
         id="rect6720-0" />
      <path
         sodipodi:type="arc"
         style="fill:none;stroke:#ff0000;stroke-width:0.38008934;stroke-miterlimit:4;stroke-opacity:1;stroke-dasharray:none"
         id="path6716-71"
         sodipodi:cx="95.812965"
         sodipodi:cy="110.87279"
         sodipodi:rx="7.4246211"
         sodipodi:ry="7.4246211"
         d="m 103.23759,110.87279 a 7.4246211,7.4246211 0 1 1 -14.849246,0 7.4246211,7.4246211 0 1 1 14.849246,0 z"
         transform="matrix(0.74452268,0,0,-0.74452268,350.12896,-2267.0894)" />
      <path
         sodipodi:type="arc"
         style="fill:none;stroke:#ff0000;stroke-width:0.38008934;stroke-miterlimit:4;stroke-opacity:1;stroke-dasharray:none"
         id="path6716-9-1"
         sodipodi:cx="95.812965"
         sodipodi:cy="110.87279"
         sodipodi:rx="7.4246211"
         sodipodi:ry="7.4246211"
         d="m 103.23759,110.87279 a 7.4246211,7.4246211 0 1 1 -14.849246,0 7.4246211,7.4246211 0 1 1 14.849246,0 z"
         transform="matrix(0.74452268,0,0,-0.74452268,350.12896,-2482.5225)" />
      <path
         sodipodi:type="arc"
         style="fill:none;stroke:#ff0000;stroke-width:0.38008934;stroke-miterlimit:4;stroke-opacity:1;stroke-dasharray:none"
         id="path6716-7-2"
         sodipodi:cx="95.812965"
         sodipodi:cy="110.87279"
         sodipodi:rx="7.4246211"
         sodipodi:ry="7.4246211"
         d="m 103.23759,110.87279 a 7.4246211,7.4246211 0 1 1 -14.849246,0 7.4246211,7.4246211 0 1 1 14.849246,0 z"
         transform="matrix(0.74452268,0,0,-0.74452268,707.29431,-2267.0894)" />
      <path
         sodipodi:type="arc"
         style="fill:none;stroke:#ff0000;stroke-width:0.38008934;stroke-miterlimit:4;stroke-opacity:1;stroke-dasharray:none"
         id="path6716-9-3-7"
         sodipodi:cx="95.812965"
         sodipodi:cy="110.87279"
         sodipodi:rx="7.4246211"
         sodipodi:ry="7.4246211"
         d="m 103.23759,110.87279 a 7.4246211,7.4246211 0 1 1 -14.849246,0 7.4246211,7.4246211 0 1 1 14.849246,0 z"
         transform="matrix(0.74452268,0,0,-0.74452268,707.29431,-2482.5225)" />
      <path
         style="fill:none;fill-opacity:1;stroke:#ff0000;stroke-opacity:1;stroke-width:0.35433071;stroke-miterlimit:4;stroke-dasharray:none"
         d="M 599.59375 358.5 L 599.59375 369.125 L 546.4375 369.125 L 546.4375 386.84375 L 557.0625 386.84375 L 557.0625 422.28125 L 546.4375 422.28125 L 546.4375 440 L 670.46875 440 L 670.46875 450.625 L 705.875 450.625 L 705.875 440 L 812.1875 440 L 812.1875 450.625 L 847.625 450.625 L 847.625 440 L 953.90625 440 L 953.90625 450.625 L 989.34375 450.625 L 989.34375 440 L 1042.5 440 L 1042.5 422.28125 L 1031.875 422.28125 L 1031.875 386.84375 L 1042.5 386.84375 L 1042.5 369.125 L 989.34375 369.125 L 989.34375 358.5 L 953.90625 358.5 L 953.90625 369.125 L 918.5 369.125 L 918.5 358.5 L 883.0625 358.5 L 883.0625 369.125 L 847.625 369.125 L 847.625 358.5 L 812.1875 358.5 L 812.1875 369.125 L 776.75 369.125 L 776.75 358.5 L 741.3125 358.5 L 741.3125 369.125 L 705.875 369.125 L 705.875 358.5 L 670.46875 358.5 L 670.46875 369.125 L 635.03125 369.125 L 635.03125 358.5 L 599.59375 358.5 z "
         transform="matrix(0.8,0,0,-0.8,-216.33139,-2309.9517)"
         id="rect6997-8-0" />
      <path
         style="fill:none;fill-opacity:1;stroke:#ff0000;stroke-opacity:1;stroke-width:0.35433071;stroke-miterlimit:4;stroke-dasharray:none"
         d="M 1321.6562 24.8125 L 1321.6562 35.4375 L 1303.9375 35.4375 L 1303.9375 60.25 L 1293.3125 60.25 L 1293.3125 95.65625 L 1303.9375 95.65625 L 1303.9375 131.09375 L 1293.3125 131.09375 L 1293.3125 166.53125 L 1303.9375 166.53125 L 1303.9375 201.96875 L 1293.3125 201.96875 L 1293.3125 237.40625 L 1303.9375 237.40625 L 1303.9375 272.84375 L 1293.3125 272.84375 L 1293.3125 308.28125 L 1303.9375 308.28125 L 1303.9375 333.0625 L 1321.6562 333.0625 L 1321.6562 343.6875 L 1357.0938 343.6875 L 1357.0938 333.0625 L 1374.8125 333.0625 L 1374.8125 237.40625 L 1385.4375 237.40625 L 1385.4375 201.96875 L 1374.8125 201.96875 L 1374.8125 95.65625 L 1385.4375 95.65625 L 1385.4375 60.25 L 1374.8125 60.25 L 1374.8125 35.4375 L 1357.0938 35.4375 L 1357.0938 24.8125 L 1321.6562 24.8125 z "
         transform="matrix(0.8,0,0,-0.8,-216.33139,-2309.9517)"
         id="rect6997-0-7" />
      <path
         style="fill:none;fill-opacity:1;stroke:#ff0000;stroke-opacity:1;stroke-width:0.35433071;stroke-miterlimit:4;stroke-dasharray:none"
         d="M 599.59375 464.8125 L 599.59375 475.4375 L 546.4375 475.4375 L 546.4375 493.15625 L 557.0625 493.15625 L 557.0625 528.59375 L 546.4375 528.59375 L 546.4375 546.3125 L 599.59375 546.3125 L 599.59375 556.9375 L 635.03125 556.9375 L 635.03125 546.3125 L 741.3125 546.3125 L 741.3125 556.9375 L 776.75 556.9375 L 776.75 546.3125 L 883.0625 546.3125 L 883.0625 556.9375 L 918.5 556.9375 L 918.5 546.3125 L 1042.5 546.3125 L 1042.5 528.59375 L 1031.875 528.59375 L 1031.875 493.15625 L 1042.5 493.15625 L 1042.5 475.4375 L 989.34375 475.4375 L 989.34375 464.8125 L 953.90625 464.8125 L 953.90625 475.4375 L 918.5 475.4375 L 918.5 464.8125 L 883.0625 464.8125 L 883.0625 475.4375 L 847.625 475.4375 L 847.625 464.8125 L 812.1875 464.8125 L 812.1875 475.4375 L 776.75 475.4375 L 776.75 464.8125 L 741.3125 464.8125 L 741.3125 475.4375 L 705.875 475.4375 L 705.875 464.8125 L 670.46875 464.8125 L 670.46875 475.4375 L 635.03125 475.4375 L 635.03125 464.8125 L 599.59375 464.8125 z "
         transform="matrix(0.8,0,0,-0.8,-216.33139,-2309.9517)"
         id="rect6997-8-6-8" />
      <path
         style="fill:none;fill-opacity:1;stroke:#ff0000;stroke-opacity:1;stroke-width:0.35433071;stroke-miterlimit:4;stroke-dasharray:none"
         d="M 1424.4062 24.8125 L 1424.4062 35.4375 L 1406.6875 35.4375 L 1406.6875 60.25 L 1396.0625 60.25 L 1396.0625 95.65625 L 1406.6875 95.65625 L 1406.6875 131.09375 L 1396.0625 131.09375 L 1396.0625 166.53125 L 1406.6875 166.53125 L 1406.6875 201.96875 L 1396.0625 201.96875 L 1396.0625 237.40625 L 1406.6875 237.40625 L 1406.6875 272.84375 L 1396.0625 272.84375 L 1396.0625 308.28125 L 1406.6875 308.28125 L 1406.6875 333.0625 L 1424.4062 333.0625 L 1424.4062 343.6875 L 1459.8438 343.6875 L 1459.8438 333.0625 L 1477.5625 333.0625 L 1477.5625 308.28125 L 1488.1875 308.28125 L 1488.1875 272.84375 L 1477.5625 272.84375 L 1477.5625 166.53125 L 1488.1875 166.53125 L 1488.1875 131.09375 L 1477.5625 131.09375 L 1477.5625 35.4375 L 1459.8438 35.4375 L 1459.8438 24.8125 L 1424.4062 24.8125 z "
         transform="matrix(0.8,0,0,-0.8,-216.33139,-2309.9517)"
         id="rect6997-0-5-2" />
      <path
         inkscape:connector-curvature="0"
         style="fill:none;fill-opacity:1;stroke:#ff0000;stroke-opacity:1;stroke-width:0.28346457;stroke-miterlimit:4;stroke-dasharray:none"
         d="m -202.15816,-2783.3306 0,-28.35 8.5,0 0,-28.35 -8.5,0 0,-28.325 8.5,0 0,-28.35 -8.5,0 0,-28.35 8.5,0 0,-28.35 -8.5,0 0,-28.35 8.5,0 0,-28.35 -8.5,0 0,-28.35 42.525,0 0,8.525 28.35,0 0,-8.525 28.325,0 0,8.525 28.349985,0 0,-8.525 28.35,0 0,8.525 28.35,0 0,-8.525 28.35,0 0,8.525 28.350003,0 0,-8.525 28.35,0 0,8.525 28.324997,0 0,-8.525 28.350015,0 0,8.525 28.35,0 0,-8.525 42.525,0 0,28.35 -8.5,0 0,28.35 8.5,0 0,28.35 -8.5,0 0,28.35 8.5,0 0,28.35 -8.5,0 0,28.35 8.5,0 0,28.325 -8.5,0 0,28.35 8.5,0 0,28.35 -42.525,0 0,-8.5 -28.35,0 0,8.5 -28.350015,0 0,-8.5 -28.324997,0 0,8.5 -28.35,0 0,-8.5 -28.350003,0 0,8.5 -28.35,0 0,-8.5 -28.35,0 0,8.5 -28.35,0 0,-8.5 -28.349985,0 0,8.5 -28.325,0 0,-8.5 -28.35,0 0,8.5 -42.525,0 z"
         id="rect6720-7" />
      <path
         sodipodi:type="arc"
         style="fill:none;stroke:#ff0000;stroke-width:0.38008934;stroke-miterlimit:4;stroke-opacity:1;stroke-dasharray:none"
         id="path6716-2"
         sodipodi:cx="95.812965"
         sodipodi:cy="110.87279"
         sodipodi:rx="7.4246211"
         sodipodi:ry="7.4246211"
         d="m 103.23759,110.87279 a 7.4246211,7.4246211 0 1 1 -14.849246,0 7.4246211,7.4246211 0 1 1 14.849246,0 z"
         transform="matrix(0.74452268,0,0,-0.74452268,-253.65057,-2720.6327)" />
      <path
         sodipodi:type="arc"
         style="fill:none;stroke:#ff0000;stroke-width:0.38008934;stroke-miterlimit:4;stroke-opacity:1;stroke-dasharray:none"
         id="path6716-9-7"
         sodipodi:cx="95.812965"
         sodipodi:cy="110.87279"
         sodipodi:rx="7.4246211"
         sodipodi:ry="7.4246211"
         d="m 103.23759,110.87279 a 7.4246211,7.4246211 0 1 1 -14.849246,0 7.4246211,7.4246211 0 1 1 14.849246,0 z"
         transform="matrix(0.74452268,0,0,-0.74452268,-253.65057,-2936.0658)" />
      <path
         sodipodi:type="arc"
         style="fill:none;stroke:#ff0000;stroke-width:0.38008934;stroke-miterlimit:4;stroke-opacity:1;stroke-dasharray:none"
         id="path6716-7-7"
         sodipodi:cx="95.812965"
         sodipodi:cy="110.87279"
         sodipodi:rx="7.4246211"
         sodipodi:ry="7.4246211"
         d="m 103.23759,110.87279 a 7.4246211,7.4246211 0 1 1 -14.849246,0 7.4246211,7.4246211 0 1 1 14.849246,0 z"
         transform="matrix(0.74452268,0,0,-0.74452268,103.51478,-2720.6327)" />
      <path
         sodipodi:type="arc"
         style="fill:none;stroke:#ff0000;stroke-width:0.38008934;stroke-miterlimit:4;stroke-opacity:1;stroke-dasharray:none"
         id="path6716-9-3-4"
         sodipodi:cx="95.812965"
         sodipodi:cy="110.87279"
         sodipodi:rx="7.4246211"
         sodipodi:ry="7.4246211"
         d="m 103.23759,110.87279 a 7.4246211,7.4246211 0 1 1 -14.849246,0 7.4246211,7.4246211 0 1 1 14.849246,0 z"
         transform="matrix(0.74452268,0,0,-0.74452268,103.51478,-2936.0658)" />
      <path
         inkscape:connector-curvature="0"
         style="fill:none;fill-opacity:1;stroke:#ff0000;stroke-opacity:1;stroke-width:0.28346457;stroke-miterlimit:4;stroke-dasharray:none"
         d="m 237.21369,-2783.3393 0,-28.35 8.5,0 0,-28.35 -8.5,0 0,-28.325 8.5,0 0,-28.35 -8.5,0 0,-28.35 8.5,0 0,-28.35 -8.5,0 0,-28.35 8.5,0 0,-28.35 -8.5,0 0,-28.35 42.525,0 0,8.525 28.35,0 0,-8.525 28.325,0 0,8.525 28.35,0 0,-8.525 28.35,0 0,8.525 28.35,0 0,-8.525 28.35,0 0,8.525 28.35,0 0,-8.525 28.35,0 0,8.525 28.325,0 0,-8.525 28.35,0 0,8.525 28.35,0 0,-8.525 42.525,0 0,28.35 -8.5,0 0,28.35 8.5,0 0,28.35 -8.5,0 0,28.35 8.5,0 0,28.35 -8.5,0 0,28.35 8.5,0 0,28.325 -8.5,0 0,28.35 8.5,0 0,28.35 -42.525,0 0,-8.5 -28.35,0 0,8.5 -28.35,0 0,-8.5 -28.325,0 0,8.5 -28.35,0 0,-8.5 -28.35,0 0,8.5 -28.35,0 0,-8.5 -28.35,0 0,8.5 -28.35,0 0,-8.5 -28.35,0 0,8.5 -28.325,0 0,-8.5 -28.35,0 0,8.5 -42.525,0 z"
         id="rect6720-9" />
      <path
         sodipodi:type="arc"
         style="fill:none;stroke:#ff0000;stroke-width:0.38008934;stroke-miterlimit:4;stroke-opacity:1;stroke-dasharray:none"
         id="path6716-97"
         sodipodi:cx="95.812965"
         sodipodi:cy="110.87279"
         sodipodi:rx="7.4246211"
         sodipodi:ry="7.4246211"
         d="m 103.23759,110.87279 a 7.4246211,7.4246211 0 1 1 -14.849246,0 7.4246211,7.4246211 0 1 1 14.849246,0 z"
         transform="matrix(0.74452268,0,0,-0.74452268,185.71951,-2720.6327)" />
      <path
         sodipodi:type="arc"
         style="fill:none;stroke:#ff0000;stroke-width:0.38008934;stroke-miterlimit:4;stroke-opacity:1;stroke-dasharray:none"
         id="path6716-9-5"
         sodipodi:cx="95.812965"
         sodipodi:cy="110.87279"
         sodipodi:rx="7.4246211"
         sodipodi:ry="7.4246211"
         d="m 103.23759,110.87279 a 7.4246211,7.4246211 0 1 1 -14.849246,0 7.4246211,7.4246211 0 1 1 14.849246,0 z"
         transform="matrix(0.74452268,0,0,-0.74452268,185.71951,-2936.0658)" />
      <path
         sodipodi:type="arc"
         style="fill:none;stroke:#ff0000;stroke-width:0.38008934;stroke-miterlimit:4;stroke-opacity:1;stroke-dasharray:none"
         id="path6716-7-6"
         sodipodi:cx="95.812965"
         sodipodi:cy="110.87279"
         sodipodi:rx="7.4246211"
         sodipodi:ry="7.4246211"
         d="m 103.23759,110.87279 a 7.4246211,7.4246211 0 1 1 -14.849246,0 7.4246211,7.4246211 0 1 1 14.849246,0 z"
         transform="matrix(0.74452268,0,0,-0.74452268,542.88486,-2720.6327)" />
      <path
         sodipodi:type="arc"
         style="fill:none;stroke:#ff0000;stroke-width:0.38008934;stroke-miterlimit:4;stroke-opacity:1;stroke-dasharray:none"
         id="path6716-9-3-5"
         sodipodi:cx="95.812965"
         sodipodi:cy="110.87279"
         sodipodi:rx="7.4246211"
         sodipodi:ry="7.4246211"
         d="m 103.23759,110.87279 a 7.4246211,7.4246211 0 1 1 -14.849246,0 7.4246211,7.4246211 0 1 1 14.849246,0 z"
         transform="matrix(0.74452268,0,0,-0.74452268,542.88486,-2936.0658)" />
      <path
         style="fill:none;fill-opacity:1;stroke:#ff0000;stroke-opacity:1;stroke-width:0.35433071;stroke-miterlimit:4;stroke-dasharray:none"
         d="M 620.09375 935.4375 L 620.09375 946.0625 L 566.9375 946.0625 L 566.9375 963.78125 L 577.5625 963.78125 L 577.5625 999.21875 L 566.9375 999.21875 L 566.9375 1016.9375 L 690.9375 1016.9375 L 690.9375 1027.5625 L 726.375 1027.5625 L 726.375 1016.9375 L 832.6875 1016.9375 L 832.6875 1027.5625 L 868.125 1027.5625 L 868.125 1016.9375 L 974.40625 1016.9375 L 974.40625 1027.5625 L 1009.8438 1027.5625 L 1009.8438 1016.9375 L 1063 1016.9375 L 1063 999.21875 L 1052.375 999.21875 L 1052.375 963.78125 L 1063 963.78125 L 1063 946.0625 L 938.96875 946.0625 L 938.96875 935.4375 L 903.53125 935.4375 L 903.53125 946.0625 L 797.25 946.0625 L 797.25 935.4375 L 761.8125 935.4375 L 761.8125 946.0625 L 655.5 946.0625 L 655.5 935.4375 L 620.09375 935.4375 z "
         transform="matrix(0.8,0,0,-0.8,-216.33139,-2309.9517)"
         id="rect6997-8-8" />
      <path
         style="fill:none;fill-opacity:1;stroke:#ff0000;stroke-opacity:1;stroke-width:0.35433071;stroke-miterlimit:4;stroke-dasharray:none"
         d="M 2043.1875 16.1875 L 2043.1875 26.8125 L 2025.4688 26.8125 L 2025.4688 122.46875 L 2014.8438 122.46875 L 2014.8438 157.90625 L 2025.4688 157.90625 L 2025.4688 264.21875 L 2014.8438 264.21875 L 2014.8438 299.65625 L 2025.4688 299.65625 L 2025.4688 324.4375 L 2043.1875 324.4375 L 2043.1875 335.0625 L 2078.625 335.0625 L 2078.625 324.4375 L 2096.3438 324.4375 L 2096.3438 228.78125 L 2106.9688 228.78125 L 2106.9688 193.34375 L 2096.3438 193.34375 L 2096.3438 87.03125 L 2106.9688 87.03125 L 2106.9688 51.625 L 2096.3438 51.625 L 2096.3438 26.8125 L 2078.625 26.8125 L 2078.625 16.1875 L 2043.1875 16.1875 z "
         transform="matrix(0.8,0,0,-0.8,-216.33139,-2309.9517)"
         id="rect6997-0-2" />
      <path
         style="fill:none;fill-opacity:1;stroke:#ff0000;stroke-opacity:1;stroke-width:0.35433071;stroke-miterlimit:4;stroke-dasharray:none"
         d="M 1202.2188 933.625 L 1202.2188 944.25 L 1078.1875 944.25 L 1078.1875 961.96875 L 1088.8438 961.96875 L 1088.8438 997.375 L 1078.1875 997.375 L 1078.1875 1015.0938 L 1131.3438 1015.0938 L 1131.3438 1025.75 L 1166.7812 1025.75 L 1166.7812 1015.0938 L 1273.0938 1015.0938 L 1273.0938 1025.75 L 1308.5312 1025.75 L 1308.5312 1015.0938 L 1414.8125 1015.0938 L 1414.8125 1025.75 L 1450.25 1025.75 L 1450.25 1015.0938 L 1574.25 1015.0938 L 1574.25 997.375 L 1563.625 997.375 L 1563.625 961.96875 L 1574.25 961.96875 L 1574.25 944.25 L 1521.125 944.25 L 1521.125 933.625 L 1485.6875 933.625 L 1485.6875 944.25 L 1379.375 944.25 L 1379.375 933.625 L 1343.9375 933.625 L 1343.9375 944.25 L 1237.6562 944.25 L 1237.6562 933.625 L 1202.2188 933.625 z "
         transform="matrix(0.8,0,0,-0.8,-216.33139,-2309.9517)"
         id="rect6997-8-6-3" />
      <path
         style="fill:none;fill-opacity:1;stroke:#ff0000;stroke-opacity:1;stroke-width:0.35433071;stroke-miterlimit:4;stroke-dasharray:none"
         d="M 1908.5 961.5625 L 1908.5 972.1875 L 1812.8438 972.1875 L 1812.8438 989.90625 L 1802.2188 989.90625 L 1802.2188 972.1875 L 1802.1875 972.1875 L 1802.1875 1043.0625 L 1802.2188 1043.0625 L 1802.2188 1025.3438 L 1812.8438 1025.3438 L 1812.8438 1043.0625 L 1837.625 1043.0625 L 1837.625 1053.6875 L 1873.0625 1053.6875 L 1873.0625 1043.0625 L 1979.375 1043.0625 L 1979.375 1053.6875 L 2014.8125 1053.6875 L 2014.8125 1043.0625 L 2110.4688 1043.0625 L 2110.4688 1025.3438 L 2121.0938 1025.3438 L 2121.0938 989.90625 L 2110.4688 989.90625 L 2110.4688 972.1875 L 2085.6562 972.1875 L 2085.6562 961.5625 L 2050.25 961.5625 L 2050.25 972.1875 L 1943.9375 972.1875 L 1943.9375 961.5625 L 1908.5 961.5625 z "
         transform="matrix(0.8,0,0,-0.8,-216.33139,-2309.9517)"
         id="rect6997-0-5-9" />
      <path
         inkscape:connector-curvature="0"
         style="fill:none;fill-opacity:1;stroke:#ff0000;stroke-opacity:1;stroke-width:0.28346457;stroke-miterlimit:4;stroke-dasharray:none"
         d="m 647.45958,-2607.3994 0,-28.35 8.5,0 0,-28.35 -8.5,0 0,-28.325 8.5,0 0,-28.35 -8.5,0 0,-28.35 8.5,0 0,-28.35 -8.5,0 0,-28.35 8.5,0 0,-28.35 -8.5,0 0,-28.35 42.52504,0 0,8.525 28.35,0 0,-8.525 28.325,0 0,8.525 28.35,0 0,-8.525 28.35,0 0,8.525 28.34999,0 0,-8.525 28.35,0 0,8.525 28.35,0 0,-8.525 28.35,0 0,8.525 28.325,0 0,-8.525 28.35,0 0,8.525 28.34999,0 0,-8.525 42.525,0 0,28.35 -8.5,0 0,28.35 8.5,0 0,28.35 -8.5,0 0,28.35 8.5,0 0,28.35 -8.5,0 0,28.35 8.5,0 0,28.325 -8.5,0 0,28.35 8.5,0 0,28.35 -42.525,0 0,-8.5 -28.34999,0 0,8.5 -28.35,0 0,-8.5 -28.325,0 0,8.5 -28.35,0 0,-8.5 -28.35,0 0,8.5 -28.35,0 0,-8.5 -28.34999,0 0,8.5 -28.35,0 0,-8.5 -28.35,0 0,8.5 -28.325,0 0,-8.5 -28.35,0 0,8.5 -42.52504,0 z"
         id="rect6720-9-5" />
      <path
         sodipodi:type="arc"
         style="fill:none;stroke:#ff0000;stroke-width:0.38008934;stroke-miterlimit:4;stroke-opacity:1;stroke-dasharray:none"
         id="path6716-97-4"
         sodipodi:cx="95.812965"
         sodipodi:cy="110.87279"
         sodipodi:rx="7.4246211"
         sodipodi:ry="7.4246211"
         d="m 103.23759,110.87279 a 7.4246211,7.4246211 0 1 1 -14.849246,0 7.4246211,7.4246211 0 1 1 14.849246,0 z"
         transform="matrix(0.74452268,0,0,-0.74452268,595.96541,-2544.6928)" />
      <path
         sodipodi:type="arc"
         style="fill:none;stroke:#ff0000;stroke-width:0.38008934;stroke-miterlimit:4;stroke-opacity:1;stroke-dasharray:none"
         id="path6716-9-5-5"
         sodipodi:cx="95.812965"
         sodipodi:cy="110.87279"
         sodipodi:rx="7.4246211"
         sodipodi:ry="7.4246211"
         d="m 103.23759,110.87279 a 7.4246211,7.4246211 0 1 1 -14.849246,0 7.4246211,7.4246211 0 1 1 14.849246,0 z"
         transform="matrix(0.74452268,0,0,-0.74452268,595.96541,-2760.1259)" />
      <path
         sodipodi:type="arc"
         style="fill:none;stroke:#ff0000;stroke-width:0.38008934;stroke-miterlimit:4;stroke-opacity:1;stroke-dasharray:none"
         id="path6716-7-6-9"
         sodipodi:cx="95.812965"
         sodipodi:cy="110.87279"
         sodipodi:rx="7.4246211"
         sodipodi:ry="7.4246211"
         d="m 103.23759,110.87279 a 7.4246211,7.4246211 0 1 1 -14.849246,0 7.4246211,7.4246211 0 1 1 14.849246,0 z"
         transform="matrix(0.74452268,0,0,-0.74452268,953.13071,-2544.6928)" />
      <path
         sodipodi:type="arc"
         style="fill:none;stroke:#ff0000;stroke-width:0.38008934;stroke-miterlimit:4;stroke-opacity:1;stroke-dasharray:none"
         id="path6716-9-3-5-2"
         sodipodi:cx="95.812965"
         sodipodi:cy="110.87279"
         sodipodi:rx="7.4246211"
         sodipodi:ry="7.4246211"
         d="m 103.23759,110.87279 a 7.4246211,7.4246211 0 1 1 -14.849246,0 7.4246211,7.4246211 0 1 1 14.849246,0 z"
         transform="matrix(0.74452268,0,0,-0.74452268,953.13071,-2760.1259)" />
      <path
         style="fill:none;fill-opacity:1;stroke:#ff0000;stroke-opacity:1;stroke-width:0.35433071;stroke-miterlimit:4;stroke-dasharray:none"
         d="M 1132.875 715.5 L 1132.875 726.125 L 1079.75 726.125 L 1079.75 743.84375 L 1090.375 743.84375 L 1090.375 779.28125 L 1079.75 779.28125 L 1079.75 797 L 1203.75 797 L 1203.75 807.625 L 1239.1875 807.625 L 1239.1875 797 L 1345.5 797 L 1345.5 807.625 L 1380.9062 807.625 L 1380.9062 797 L 1487.2188 797 L 1487.2188 807.625 L 1522.6562 807.625 L 1522.6562 797 L 1575.8125 797 L 1575.8125 779.28125 L 1565.1562 779.28125 L 1565.1562 743.84375 L 1575.8125 743.84375 L 1575.8125 726.125 L 1451.7812 726.125 L 1451.7812 715.5 L 1416.3438 715.5 L 1416.3438 726.125 L 1310.0625 726.125 L 1310.0625 715.5 L 1274.625 715.5 L 1274.625 726.125 L 1168.3125 726.125 L 1168.3125 715.5 L 1132.875 715.5 z "
         transform="matrix(0.8,0,0,-0.8,-216.33139,-2309.9517)"
         id="rect6997-8-8-0" />
      <path
         style="fill:none;fill-opacity:1;stroke:#ff0000;stroke-opacity:1;stroke-width:0.35433071;stroke-miterlimit:4;stroke-dasharray:none"
         d="M 1632.3438 370.75 L 1632.3438 381.375 L 1614.625 381.375 L 1614.625 477.03125 L 1604 477.03125 L 1604 512.46875 L 1614.625 512.46875 L 1614.625 618.78125 L 1604 618.78125 L 1604 654.1875 L 1614.625 654.1875 L 1614.625 679 L 1632.3438 679 L 1632.3438 689.625 L 1667.7812 689.625 L 1667.7812 679 L 1685.5 679 L 1685.5 583.34375 L 1696.125 583.34375 L 1696.125 547.90625 L 1685.5 547.90625 L 1685.5 441.59375 L 1696.125 441.59375 L 1696.125 406.15625 L 1685.5 406.15625 L 1685.5 381.375 L 1667.7812 381.375 L 1667.7812 370.75 L 1632.3438 370.75 z "
         transform="matrix(0.8,0,0,-0.8,-216.33139,-2309.9517)"
         id="rect6997-0-2-1" />
      <path
         style="fill:none;fill-opacity:1;stroke:#ff0000;stroke-opacity:1;stroke-width:0.35433071;stroke-miterlimit:4;stroke-dasharray:none"
         d="M 1203.75 821.8125 L 1203.75 832.4375 L 1079.75 832.4375 L 1079.75 850.15625 L 1090.375 850.15625 L 1090.375 885.59375 L 1079.75 885.59375 L 1079.75 903.3125 L 1132.875 903.3125 L 1132.875 913.9375 L 1168.3125 913.9375 L 1168.3125 903.3125 L 1274.625 903.3125 L 1274.625 913.9375 L 1310.0625 913.9375 L 1310.0625 903.3125 L 1416.3438 903.3125 L 1416.3438 913.9375 L 1451.7812 913.9375 L 1451.7812 903.3125 L 1575.8125 903.3125 L 1575.8125 885.59375 L 1565.1562 885.59375 L 1565.1562 850.15625 L 1575.8125 850.15625 L 1575.8125 832.4375 L 1522.6562 832.4375 L 1522.6562 821.8125 L 1487.2188 821.8125 L 1487.2188 832.4375 L 1380.9062 832.4375 L 1380.9062 821.8125 L 1345.5 821.8125 L 1345.5 832.4375 L 1239.1875 832.4375 L 1239.1875 821.8125 L 1203.75 821.8125 z "
         transform="matrix(0.8,0,0,-0.8,-216.33139,-2309.9517)"
         id="rect6997-8-6-3-9" />
      <path
         style="fill:none;fill-opacity:1;stroke:#ff0000;stroke-opacity:1;stroke-width:0.35433071;stroke-miterlimit:4;stroke-dasharray:none"
         d="M 1735.0938 370.75 L 1735.0938 381.375 L 1717.4062 381.375 L 1717.4062 406.15625 L 1706.75 406.15625 L 1706.75 441.59375 L 1717.4062 441.59375 L 1717.4062 547.90625 L 1706.75 547.90625 L 1706.75 583.34375 L 1717.4062 583.34375 L 1717.4062 679 L 1735.0938 679 L 1735.0938 689.625 L 1770.5312 689.625 L 1770.5312 679 L 1788.25 679 L 1788.25 654.1875 L 1798.875 654.1875 L 1798.875 618.78125 L 1788.25 618.78125 L 1788.25 512.46875 L 1798.875 512.46875 L 1798.875 477.03125 L 1788.25 477.03125 L 1788.25 381.375 L 1770.5312 381.375 L 1770.5312 370.75 L 1735.0938 370.75 z "
         transform="matrix(0.8,0,0,-0.8,-216.33139,-2309.9517)"
         id="rect6997-0-5-9-6" />
      <path
         inkscape:connector-curvature="0"
         style="fill:none;fill-opacity:1;stroke:#ff0000;stroke-opacity:1;stroke-width:0.28346457;stroke-miterlimit:4;stroke-dasharray:none"
         d="m 986.29751,-2330.7624 0,-28.35 8.5,0 0,-28.35 -8.5,0 0,-28.325 8.5,0 0,-28.35 -8.5,0 0,-28.35 8.5,0 0,-28.35 -8.5,0 0,-28.35 8.5,0 0,-28.35 -8.5,0 0,-28.35 42.52499,0 0,8.525 28.35,0 0,-8.525 28.325,0 0,8.525 28.35,0 0,-8.525 28.35,0 0,8.525 28.35,0 0,-8.525 28.35,0 0,8.525 28.35,0 0,-8.525 28.35,0 0,8.525 28.325,0 0,-8.525 28.35,0 0,8.525 28.35,0 0,-8.525 42.525,0 0,28.35 -8.5,0 0,28.35 8.5,0 0,28.35 -8.5,0 0,28.35 8.5,0 0,28.35 -8.5,0 0,28.35 8.5,0 0,28.325 -8.5,0 0,28.35 8.5,0 0,28.35 -42.525,0 0,-8.5 -28.35,0 0,8.5 -28.35,0 0,-8.5 -28.325,0 0,8.5 -28.35,0 0,-8.5 -28.35,0 0,8.5 -28.35,0 0,-8.5 -28.35,0 0,8.5 -28.35,0 0,-8.5 -28.35,0 0,8.5 -28.325,0 0,-8.5 -28.35,0 0,8.5 -42.52499,0 z"
         id="rect6720-9-1" />
      <path
         sodipodi:type="arc"
         style="fill:none;stroke:#ff0000;stroke-width:0.38008934;stroke-miterlimit:4;stroke-opacity:1;stroke-dasharray:none"
         id="path6716-97-1"
         sodipodi:cx="95.812965"
         sodipodi:cy="110.87279"
         sodipodi:rx="7.4246211"
         sodipodi:ry="7.4246211"
         d="m 103.23759,110.87279 a 7.4246211,7.4246211 0 1 1 -14.849246,0 7.4246211,7.4246211 0 1 1 14.849246,0 z"
         transform="matrix(0.74452268,0,0,-0.74452268,934.80331,-2268.0558)" />
      <path
         sodipodi:type="arc"
         style="fill:none;stroke:#ff0000;stroke-width:0.38008934;stroke-miterlimit:4;stroke-opacity:1;stroke-dasharray:none"
         id="path6716-9-5-1"
         sodipodi:cx="95.812965"
         sodipodi:cy="110.87279"
         sodipodi:rx="7.4246211"
         sodipodi:ry="7.4246211"
         d="m 103.23759,110.87279 a 7.4246211,7.4246211 0 1 1 -14.849246,0 7.4246211,7.4246211 0 1 1 14.849246,0 z"
         transform="matrix(0.74452268,0,0,-0.74452268,934.80331,-2483.4889)" />
      <path
         sodipodi:type="arc"
         style="fill:none;stroke:#ff0000;stroke-width:0.38008934;stroke-miterlimit:4;stroke-opacity:1;stroke-dasharray:none"
         id="path6716-7-6-1"
         sodipodi:cx="95.812965"
         sodipodi:cy="110.87279"
         sodipodi:rx="7.4246211"
         sodipodi:ry="7.4246211"
         d="m 103.23759,110.87279 a 7.4246211,7.4246211 0 1 1 -14.849246,0 7.4246211,7.4246211 0 1 1 14.849246,0 z"
         transform="matrix(0.74452268,0,0,-0.74452268,1291.9687,-2268.0558)" />
      <path
         sodipodi:type="arc"
         style="fill:none;stroke:#ff0000;stroke-width:0.38008934;stroke-miterlimit:4;stroke-opacity:1;stroke-dasharray:none"
         id="path6716-9-3-5-0"
         sodipodi:cx="95.812965"
         sodipodi:cy="110.87279"
         sodipodi:rx="7.4246211"
         sodipodi:ry="7.4246211"
         d="m 103.23759,110.87279 a 7.4246211,7.4246211 0 1 1 -14.849246,0 7.4246211,7.4246211 0 1 1 14.849246,0 z"
         transform="matrix(0.74452268,0,0,-0.74452268,1291.9687,-2483.4889)" />
      <path
         style="fill:none;fill-opacity:1;stroke:#ff0000;stroke-opacity:1;stroke-width:0.35433071;stroke-miterlimit:4;stroke-dasharray:none"
         d="M 1825.875 371.75 L 1825.875 495.75 L 1815.25 495.75 L 1815.25 531.1875 L 1825.875 531.1875 L 1825.875 637.5 L 1815.25 637.5 L 1815.25 672.9375 L 1825.875 672.9375 L 1825.875 779.21875 L 1815.25 779.21875 L 1815.25 814.65625 L 1825.875 814.65625 L 1825.875 867.8125 L 1843.5938 867.8125 L 1843.5938 857.1875 L 1879.0312 857.1875 L 1879.0312 867.8125 L 1896.75 867.8125 L 1896.75 743.78125 L 1907.375 743.78125 L 1907.375 708.34375 L 1896.75 708.34375 L 1896.75 602.0625 L 1907.375 602.0625 L 1907.375 566.625 L 1896.75 566.625 L 1896.75 460.3125 L 1907.375 460.3125 L 1907.375 424.90625 L 1896.75 424.90625 L 1896.75 371.75 L 1879.0312 371.75 L 1879.0312 382.375 L 1843.5938 382.375 L 1843.5938 371.75 L 1825.875 371.75 z "
         transform="matrix(0.8,0,0,-0.8,-216.33139,-2309.9517)"
         id="rect6997-8-8-1" />
      <path
         style="fill:none;fill-opacity:1;stroke:#ff0000;stroke-opacity:1;stroke-width:0.35433071;stroke-miterlimit:4;stroke-dasharray:none"
         d="M 1628.5 716 L 1628.5 726.65625 L 1610.7812 726.65625 L 1610.7812 822.3125 L 1600.1562 822.3125 L 1600.1562 857.75 L 1610.7812 857.75 L 1610.7812 964.03125 L 1600.1562 964.03125 L 1600.1562 999.46875 L 1610.7812 999.46875 L 1610.7812 1024.2812 L 1628.5 1024.2812 L 1628.5 1034.9062 L 1663.9375 1034.9062 L 1663.9375 1024.2812 L 1681.6562 1024.2812 L 1681.6562 928.625 L 1692.2812 928.625 L 1692.2812 893.1875 L 1681.6562 893.1875 L 1681.6562 786.875 L 1692.2812 786.875 L 1692.2812 751.4375 L 1681.6562 751.4375 L 1681.6562 726.65625 L 1663.9375 726.65625 L 1663.9375 716 L 1628.5 716 z "
         transform="matrix(0.8,0,0,-0.8,-216.33139,-2309.9517)"
         id="rect6997-0-2-2" />
      <path
         style="fill:none;fill-opacity:1;stroke:#ff0000;stroke-opacity:1;stroke-width:0.35433071;stroke-miterlimit:4;stroke-dasharray:none"
         d="M 133.3125 932 L 133.3125 942.65625 L 9.28125 942.65625 L 9.28125 960.34375 L 19.90625 960.34375 L 19.90625 995.78125 L 9.28125 995.78125 L 9.28125 1013.5 L 62.4375 1013.5 L 62.4375 1024.125 L 97.875 1024.125 L 97.875 1013.5 L 204.15625 1013.5 L 204.15625 1024.125 L 239.59375 1024.125 L 239.59375 1013.5 L 345.90625 1013.5 L 345.90625 1024.125 L 381.34375 1024.125 L 381.34375 1013.5 L 505.34375 1013.5 L 505.34375 995.78125 L 494.71875 995.78125 L 494.71875 960.34375 L 505.34375 960.34375 L 505.34375 942.65625 L 452.1875 942.65625 L 452.1875 932 L 416.75 932 L 416.75 942.65625 L 310.46875 942.65625 L 310.46875 932 L 275.03125 932 L 275.03125 942.65625 L 168.71875 942.65625 L 168.71875 932 L 133.3125 932 z "
         transform="matrix(0.8,0,0,-0.8,-216.33139,-2309.9517)"
         id="rect6997-8-6-3-4" />
      <path
         style="fill:none;fill-opacity:1;stroke:#ff0000;stroke-opacity:1;stroke-width:0.35433071;stroke-miterlimit:4;stroke-dasharray:none"
         d="M 1731.25 716 L 1731.25 726.65625 L 1713.5312 726.65625 L 1713.5312 751.4375 L 1702.9062 751.4375 L 1702.9062 786.875 L 1713.5312 786.875 L 1713.5312 893.1875 L 1702.9062 893.1875 L 1702.9062 928.59375 L 1713.5312 928.59375 L 1713.5312 1024.2812 L 1731.25 1024.2812 L 1731.25 1034.9062 L 1766.6875 1034.9062 L 1766.6875 1024.2812 L 1784.4062 1024.2812 L 1784.4062 999.46875 L 1795.0312 999.46875 L 1795.0312 964.03125 L 1784.4062 964.03125 L 1784.4062 857.75 L 1795.0312 857.75 L 1795.0312 822.3125 L 1784.4062 822.3125 L 1784.4062 726.65625 L 1766.6875 726.65625 L 1766.6875 716 L 1731.25 716 z "
         transform="matrix(0.8,0,0,-0.8,-216.33139,-2309.9517)"
         id="rect6997-0-5-9-4" />
      <path
         style="fill:none;fill-opacity:1;stroke:#ff0000;stroke-opacity:1;stroke-width:0.35433071;stroke-miterlimit:4;stroke-dasharray:none"
         d="M 1928.5625 368.96875 L 1928.5625 492.96875 L 1917.9375 492.96875 L 1917.9375 528.40625 L 1928.5625 528.40625 L 1928.5625 634.71875 L 1917.9375 634.71875 L 1917.9375 670.15625 L 1928.5625 670.15625 L 1928.5625 776.4375 L 1917.9375 776.4375 L 1917.9375 811.875 L 1928.5625 811.875 L 1928.5625 865.03125 L 1946.2812 865.03125 L 1946.2812 854.40625 L 1981.7188 854.40625 L 1981.7188 865.03125 L 1999.4375 865.03125 L 1999.4375 741 L 2010.0625 741 L 2010.0625 705.5625 L 1999.4375 705.5625 L 1999.4375 599.28125 L 2010.0625 599.28125 L 2010.0625 563.84375 L 1999.4375 563.84375 L 1999.4375 457.53125 L 2010.0625 457.53125 L 2010.0625 422.125 L 1999.4375 422.125 L 1999.4375 368.96875 L 1981.7188 368.96875 L 1981.7188 379.59375 L 1946.2812 379.59375 L 1946.2812 368.96875 L 1928.5625 368.96875 z "
         transform="matrix(0.8,0,0,-0.8,-216.33139,-2309.9517)"
         id="rect6997-8-8-1-8" />
      <path
         inkscape:connector-curvature="0"
         style="fill:none;fill-opacity:1;stroke:#ff0000;stroke-opacity:1;stroke-width:0.28346457;stroke-miterlimit:4;stroke-dasharray:none"
         d="m 1305.5559,-3011.4954 0,-8.5 -76.5249,0 0,-14.175 -8.5,0 0,14.175 -0.025,0 0,-56.7 0.025,0 0,14.175 8.5,0 0,-14.175 19.8249,0 0,-8.5 28.35,0 0,8.5 85.05,0 0,-8.5 28.35,0 0,8.5 76.5251,0 0,14.175 8.5,0 0,28.35 -8.5,0 0,14.175 -19.8501,0 0,8.5 -28.325,0 0,-8.5 -85.05,0 0,8.5 -28.35,0 z"
         id="rect6997-0-5-9-8" />
      <path
         inkscape:connector-curvature="0"
         style="fill:none;stroke:#ff0000;stroke-width:0.28346458;stroke-miterlimit:4;stroke-opacity:1;stroke-dasharray:none"
         d="m 1410.1186,-2607.5204 0,-99.2 -8.5,0 0,-28.35 8.5,0 0,-85.05 -8.5,0 0,-28.35 8.5,0 0,-85.025 -8.5,0 0,-28.35 8.5,0 0,-42.525 14.1749,0 0,8.5 28.3501,0 0,-8.5 14.175,0 0,99.225 8.5,0 0,28.35 -8.5,0 0,85.025 8.5,0 0,28.35 -8.5,0 0,85.05 8.5,0 0,28.325 -8.5,0 0,42.525 -14.175,0 0,-8.5 -28.3501,0 0,8.5 -14.1749,0 z"
         id="rect6997-8-8-1-8-1" />
    </g>
  </g>
</svg>
