<?xml version="1.0" encoding="UTF-8" standalone="no"?>
<!-- Created with Inkscape (http://www.inkscape.org/) -->

<svg
   xmlns:dc="http://purl.org/dc/elements/1.1/"
   xmlns:cc="http://creativecommons.org/ns#"
   xmlns:rdf="http://www.w3.org/1999/02/22-rdf-syntax-ns#"
   xmlns:svg="http://www.w3.org/2000/svg"
   xmlns="http://www.w3.org/2000/svg"
   xmlns:sodipodi="http://sodipodi.sourceforge.net/DTD/sodipodi-0.dtd"
   xmlns:inkscape="http://www.inkscape.org/namespaces/inkscape"
   width="2125.9841"
   height="1062.9921"
   id="svg2"
   version="1.1"
   inkscape:version="0.48.4 r9939"
   sodipodi:docname="aylacruizer.svg">
  <defs
     id="defs4">
    <symbol
       id="*Paper_Space0" />
    <symbol
       id="*Paper_Space" />
    <symbol
       id="*Model_Space" />
    <pattern
       id="Hatch"
       x="0"
       y="0"
       patternUnits="userSpaceOnUse"
       width="8"
       height="8">
      <path
         id="path3000"
         d="M8 4 l-4,4"
         stroke-width="0.25"
         stroke="#000000"
         linecap="square" />
      <path
         id="path3002"
         d="M6 2 l-4,4"
         stroke-width="0.25"
         stroke="#000000"
         linecap="square" />
      <path
         id="path3004"
         d="M4 0 l-4,4"
         stroke-width="0.25"
         stroke="#000000"
         linecap="square" />
    </pattern>
    <marker
       orient="auto"
       id="DistanceX"
       style="overflow:visible"
       refX="0"
       refY="0">
      <path
         id="path2997"
         d="M 3,-3 -3,3 M 0,-5 0,5"
         style="stroke:#000000;stroke-width:0.5"
         inkscape:connector-curvature="0" />
    </marker>
    <symbol
       id="*Paper_Space0-9" />
    <symbol
       id="*Paper_Space-0" />
    <symbol
       id="*Model_Space-4" />
    <pattern
       id="Hatch-7"
       x="0"
       y="0"
       patternUnits="userSpaceOnUse"
       width="8"
       height="8">
      <path
         id="path5005"
         d="M8 4 l-4,4"
         stroke-width="0.25"
         stroke="#000000"
         linecap="square" />
      <path
         id="path5007"
         d="M6 2 l-4,4"
         stroke-width="0.25"
         stroke="#000000"
         linecap="square" />
      <path
         id="path5009"
         d="M4 0 l-4,4"
         stroke-width="0.25"
         stroke="#000000"
         linecap="square" />
    </pattern>
    <marker
       orient="auto"
       id="DistanceX-1"
       style="overflow:visible"
       refX="0"
       refY="0">
      <path
         id="path5002"
         d="M 3,-3 -3,3 M 0,-5 0,5"
         style="stroke:#000000;stroke-width:0.5"
         inkscape:connector-curvature="0" />
    </marker>
    <symbol
       id="*Paper_Space0-4" />
    <symbol
       id="*Paper_Space-9" />
    <symbol
       id="*Model_Space-0" />
    <pattern
       id="Hatch-4"
       x="0"
       y="0"
       patternUnits="userSpaceOnUse"
       width="8"
       height="8">
      <path
         id="path3666"
         d="M8 4 l-4,4"
         stroke-width="0.25"
         stroke="#000000"
         linecap="square" />
      <path
         id="path3668"
         d="M6 2 l-4,4"
         stroke-width="0.25"
         stroke="#000000"
         linecap="square" />
      <path
         id="path3670"
         d="M4 0 l-4,4"
         stroke-width="0.25"
         stroke="#000000"
         linecap="square" />
    </pattern>
    <marker
       orient="auto"
       id="DistanceX-17"
       style="overflow:visible"
       refX="0.0"
       refY="0.0">
      <path
         id="path3663"
         d="M 3,-3 L -3,3 M 0,-5 L  0,5"
         style="stroke:#000000; stroke-width:0.5" />
    </marker>
  </defs>
  <sodipodi:namedview
     id="base"
     pagecolor="#ffffff"
     bordercolor="#666666"
     borderopacity="1.0"
     inkscape:pageopacity="0.0"
     inkscape:pageshadow="2"
     inkscape:zoom="0.50000001"
     inkscape:cx="1035.1843"
     inkscape:cy="522.63254"
     inkscape:document-units="mm"
     inkscape:current-layer="g7008"
     showgrid="false"
     units="mm"
     inkscape:window-width="1920"
     inkscape:window-height="1056"
     inkscape:window-x="0"
     inkscape:window-y="24"
     inkscape:window-maximized="1">
    <inkscape:grid
       type="xygrid"
       id="grid6836"
       empspacing="5"
       visible="true"
       enabled="true"
       snapvisiblegridlinesonly="true" />
  </sodipodi:namedview>
  <metadata
     id="metadata7">
    <rdf:RDF>
      <cc:Work
         rdf:about="">
        <dc:format>image/svg+xml</dc:format>
        <dc:type
           rdf:resource="http://purl.org/dc/dcmitype/StillImage" />
        <dc:title></dc:title>
      </cc:Work>
    </rdf:RDF>
  </metadata>
  <g
     inkscape:label="Laag 1"
     inkscape:groupmode="layer"
     id="layer1"
     transform="translate(0,10.630169)">
    <g
       transform="matrix(1.25,0,0,-1.25,270.41424,-2898.0698)"
       inkscape:label="box_20120810_152115_782344"
       id="g7008">
      <path
         style="fill:none;fill-opacity:1;stroke:#ff0000;stroke-opacity:1;stroke-width:0.35433071;stroke-miterlimit:4;stroke-dasharray:none"
         d="M 17.71875 17.71875 L 17.71875 53.15625 L 28.34375 53.15625 L 28.34375 88.59375 L 17.71875 88.59375 L 17.71875 124 L 28.34375 124 L 28.34375 159.4375 L 17.71875 159.4375 L 17.71875 194.875 L 28.34375 194.875 L 28.34375 230.3125 L 17.71875 230.3125 L 17.71875 265.75 L 28.34375 265.75 L 28.34375 301.1875 L 17.71875 301.1875 L 17.71875 336.625 L 70.875 336.625 L 70.875 325.96875 L 106.3125 325.96875 L 106.3125 336.625 L 141.71875 336.625 L 141.71875 325.96875 L 177.15625 325.96875 L 177.15625 336.625 L 212.59375 336.625 L 212.59375 325.96875 L 248.03125 325.96875 L 248.03125 336.625 L 283.46875 336.625 L 283.46875 325.96875 L 318.90625 325.96875 L 318.90625 336.625 L 354.34375 336.625 L 354.34375 325.96875 L 389.75 325.96875 L 389.75 336.625 L 425.1875 336.625 L 425.1875 325.96875 L 460.625 325.96875 L 460.625 336.625 L 513.78125 336.625 L 513.78125 301.1875 L 503.15625 301.1875 L 503.15625 265.75 L 513.78125 265.75 L 513.78125 230.3125 L 503.15625 230.3125 L 503.15625 194.875 L 513.78125 194.875 L 513.78125 159.4375 L 503.15625 159.4375 L 503.15625 124 L 513.78125 124 L 513.78125 88.59375 L 503.15625 88.59375 L 503.15625 53.15625 L 513.78125 53.15625 L 513.78125 17.71875 L 460.625 17.71875 L 460.625 28.34375 L 425.1875 28.34375 L 425.1875 17.71875 L 389.75 17.71875 L 389.75 28.34375 L 354.34375 28.34375 L 354.34375 17.71875 L 318.90625 17.71875 L 318.90625 28.34375 L 283.46875 28.34375 L 283.46875 17.71875 L 248.03125 17.71875 L 248.03125 28.34375 L 212.59375 28.34375 L 212.59375 17.71875 L 177.15625 17.71875 L 177.15625 28.34375 L 141.71875 28.34375 L 141.71875 17.71875 L 106.3125 17.71875 L 106.3125 28.34375 L 70.875 28.34375 L 70.875 17.71875 L 17.71875 17.71875 z "
         id="rect6720"
         transform="matrix(0.8,0,0,-0.8,-216.33139,-2309.9517)" />
      <path
         sodipodi:type="arc"
         style="fill:none;stroke:#ff0000;stroke-width:0.38008934;stroke-miterlimit:4;stroke-opacity:1;stroke-dasharray:none"
         id="path6716"
         sodipodi:cx="95.812965"
         sodipodi:cy="110.87279"
         sodipodi:rx="7.4246211"
         sodipodi:ry="7.4246211"
         d="m 103.23759,110.87279 c 0,4.1005 -3.32412,7.42462 -7.424625,7.42462 -4.100505,0 -7.424621,-3.32412 -7.424621,-7.42462 0,-4.10051 3.324116,-7.42462 7.424621,-7.42462 4.100505,0 7.424625,3.32411 7.424625,7.42462 z"
         transform="matrix(0.74452268,0,0,-0.74452268,-253.65057,-2261.4201)" />
      <path
         sodipodi:type="arc"
         style="fill:none;stroke:#ff0000;stroke-width:0.38008934;stroke-miterlimit:4;stroke-opacity:1;stroke-dasharray:none"
         id="path6716-9"
         sodipodi:cx="95.812965"
         sodipodi:cy="110.87279"
         sodipodi:rx="7.4246211"
         sodipodi:ry="7.4246211"
         d="m 103.23759,110.87279 c 0,4.1005 -3.32412,7.42462 -7.424625,7.42462 -4.100505,0 -7.424621,-3.32412 -7.424621,-7.42462 0,-4.10051 3.324116,-7.42462 7.424621,-7.42462 4.100505,0 7.424625,3.32411 7.424625,7.42462 z"
         transform="matrix(0.74452268,0,0,-0.74452268,-253.65057,-2476.8532)" />
      <path
         sodipodi:type="arc"
         style="fill:none;stroke:#ff0000;stroke-width:0.38008934;stroke-miterlimit:4;stroke-opacity:1;stroke-dasharray:none"
         id="path6716-7"
         sodipodi:cx="95.812965"
         sodipodi:cy="110.87279"
         sodipodi:rx="7.4246211"
         sodipodi:ry="7.4246211"
         d="m 103.23759,110.87279 c 0,4.1005 -3.32412,7.42462 -7.424625,7.42462 -4.100505,0 -7.424621,-3.32412 -7.424621,-7.42462 0,-4.10051 3.324116,-7.42462 7.424621,-7.42462 4.100505,0 7.424625,3.32411 7.424625,7.42462 z"
         transform="matrix(0.74452268,0,0,-0.74452268,103.51478,-2261.4201)" />
      <path
         sodipodi:type="arc"
         style="fill:none;stroke:#ff0000;stroke-width:0.38008934;stroke-miterlimit:4;stroke-opacity:1;stroke-dasharray:none"
         id="path6716-9-3"
         sodipodi:cx="95.812965"
         sodipodi:cy="110.87279"
         sodipodi:rx="7.4246211"
         sodipodi:ry="7.4246211"
         d="m 103.23759,110.87279 c 0,4.1005 -3.32412,7.42462 -7.424625,7.42462 -4.100505,0 -7.424621,-3.32412 -7.424621,-7.42462 0,-4.10051 3.324116,-7.42462 7.424621,-7.42462 4.100505,0 7.424625,3.32411 7.424625,7.42462 z"
         transform="matrix(0.74452268,0,0,-0.74452268,103.51478,-2476.8532)" />
      <path
         style="fill:none;fill-opacity:1;stroke:#ff0000;stroke-opacity:1;stroke-width:0.35433071;stroke-miterlimit:4;stroke-dasharray:none"
         d="M 70.875 361.40625 L 70.875 372.0625 L 17.71875 372.0625 L 17.71875 389.75 L 28.34375 389.75 L 28.34375 407.46875 L 70.875 407.46875 L 70.875 418.125 L 106.3125 418.125 L 106.3125 407.46875 L 141.71875 407.46875 L 141.71875 418.125 L 177.15625 418.125 L 177.15625 407.46875 L 212.59375 407.46875 L 212.59375 418.125 L 248.03125 418.125 L 248.03125 407.46875 L 283.46875 407.46875 L 283.46875 418.125 L 318.90625 418.125 L 318.90625 407.46875 L 354.34375 407.46875 L 354.34375 418.125 L 389.75 418.125 L 389.75 407.46875 L 425.1875 407.46875 L 425.1875 418.125 L 460.625 418.125 L 460.625 407.46875 L 503.15625 407.46875 L 503.15625 389.75 L 513.78125 389.75 L 513.78125 372.0625 L 389.75 372.0625 L 389.75 361.40625 L 354.34375 361.40625 L 354.34375 372.0625 L 248.03125 372.0625 L 248.03125 361.40625 L 212.59375 361.40625 L 212.59375 372.0625 L 106.3125 372.0625 L 106.3125 361.40625 L 70.875 361.40625 z "
         transform="matrix(0.8,0,0,-0.8,-216.33139,-2309.9517)"
         id="rect6997-8" />
      <path
         style="fill:none;fill-opacity:1;stroke:#ff0000;stroke-opacity:1;stroke-width:0.35433071;stroke-miterlimit:4;stroke-dasharray:none"
         d="M 566.9375 17.71875 L 566.9375 28.34375 L 549.21875 28.34375 L 549.21875 124 L 538.59375 124 L 538.59375 159.4375 L 549.21875 159.4375 L 549.21875 265.75 L 538.59375 265.75 L 538.59375 301.1875 L 549.21875 301.1875 L 549.21875 325.96875 L 566.9375 325.96875 L 566.9375 336.625 L 584.65625 336.625 L 584.65625 301.1875 L 595.28125 301.1875 L 595.28125 265.75 L 584.65625 265.75 L 584.65625 230.3125 L 595.28125 230.3125 L 595.28125 194.875 L 584.65625 194.875 L 584.65625 159.4375 L 595.28125 159.4375 L 595.28125 124 L 584.65625 124 L 584.65625 88.59375 L 595.28125 88.59375 L 595.28125 53.15625 L 584.65625 53.15625 L 584.65625 17.71875 L 566.9375 17.71875 z "
         transform="matrix(0.8,0,0,-0.8,-216.33139,-2309.9517)"
         id="rect6997-0" />
      <path
         style="fill:none;fill-opacity:1;stroke:#ff0000;stroke-opacity:1;stroke-width:0.35433071;stroke-miterlimit:4;stroke-dasharray:none"
         d="M 638.53125 16.84375 L 638.53125 27.46875 L 620.8125 27.46875 L 620.8125 52.25 L 610.15625 52.25 L 610.15625 87.6875 L 620.8125 87.6875 L 620.8125 194 L 610.15625 194 L 610.15625 229.4375 L 620.8125 229.4375 L 620.8125 325.09375 L 638.53125 325.09375 L 638.53125 335.71875 L 656.21875 335.71875 L 656.21875 300.28125 L 666.875 300.28125 L 666.875 264.875 L 656.21875 264.875 L 656.21875 158.5625 L 666.875 158.5625 L 666.875 123.125 L 656.21875 123.125 L 656.21875 16.84375 L 638.53125 16.84375 z "
         transform="matrix(0.8,0,0,-0.8,-216.33139,-2309.9517)"
         id="rect6997-0-0" />
      <path
         style="fill:none;fill-opacity:1;stroke:#ff0000;stroke-opacity:1;stroke-width:0.35433071;stroke-miterlimit:4;stroke-dasharray:none"
         d="M 702.15625 17.53125 L 702.15625 28.15625 L 684.4375 28.15625 L 684.4375 123.84375 L 673.8125 123.84375 L 673.8125 159.28125 L 684.4375 159.28125 L 684.4375 265.5625 L 673.8125 265.5625 L 673.8125 301 L 684.4375 301 L 684.4375 325.8125 L 702.15625 325.8125 L 702.15625 336.4375 L 719.875 336.4375 L 719.875 230.125 L 730.5 230.125 L 730.5 194.71875 L 719.875 194.71875 L 719.875 88.40625 L 730.5 88.40625 L 730.5 52.96875 L 719.875 52.96875 L 719.875 17.53125 L 702.15625 17.53125 z "
         transform="matrix(0.8,0,0,-0.8,-216.33139,-2309.9517)"
         id="rect6997-0-4" />
      <path
         style="fill:none;fill-opacity:1;stroke:#ff0000;stroke-opacity:1;stroke-width:0.35433071;stroke-miterlimit:4;stroke-dasharray:none"
         d="M 767.90625 14 L 767.90625 24.625 L 750.1875 24.625 L 750.1875 49.4375 L 739.5625 49.4375 L 739.5625 84.875 L 750.1875 84.875 L 750.1875 191.15625 L 739.5625 191.15625 L 739.5625 226.59375 L 750.1875 226.59375 L 750.1875 322.28125 L 767.90625 322.28125 L 767.90625 332.90625 L 785.625 332.90625 L 785.625 297.46875 L 796.25 297.46875 L 796.25 262.03125 L 785.625 262.03125 L 785.625 226.59375 L 796.25 226.59375 L 796.25 191.15625 L 785.625 191.15625 L 785.625 155.75 L 796.25 155.75 L 796.25 120.3125 L 785.625 120.3125 L 785.625 84.875 L 796.25 84.875 L 796.25 49.4375 L 785.625 49.4375 L 785.625 14 L 767.90625 14 z "
         transform="matrix(0.8,0,0,-0.8,-216.33139,-2309.9517)"
         id="rect6997-0-5" />
      <path
         style="fill:none;fill-opacity:1;stroke:#ff0000;stroke-opacity:1;stroke-width:0.35433071;stroke-miterlimit:4;stroke-dasharray:none"
         d="M 142.5625 434.3125 L 142.5625 444.9375 L 18.5625 444.9375 L 18.5625 462.65625 L 29.1875 462.65625 L 29.1875 480.375 L 71.6875 480.375 L 71.6875 491 L 107.125 491 L 107.125 480.375 L 142.5625 480.375 L 142.5625 491 L 178 491 L 178 480.375 L 213.4375 480.375 L 213.4375 491 L 248.875 491 L 248.875 480.375 L 284.28125 480.375 L 284.28125 491 L 319.71875 491 L 319.71875 480.375 L 355.15625 480.375 L 355.15625 491 L 390.59375 491 L 390.59375 480.375 L 426.03125 480.375 L 426.03125 491 L 461.46875 491 L 461.46875 480.375 L 503.96875 480.375 L 503.96875 462.65625 L 514.625 462.65625 L 514.625 444.9375 L 461.46875 444.9375 L 461.46875 434.3125 L 426.03125 434.3125 L 426.03125 444.9375 L 319.71875 444.9375 L 319.71875 434.3125 L 284.28125 434.3125 L 284.28125 444.9375 L 178 444.9375 L 178 434.3125 L 142.5625 434.3125 z "
         transform="matrix(0.8,0,0,-0.8,-216.33139,-2309.9517)"
         id="rect6997-8-6" />
      <path
         style="fill:none;fill-opacity:1;stroke:#ff0000;stroke-opacity:1;stroke-width:0.35433071;stroke-miterlimit:4;stroke-dasharray:none"
         d="M 141.84375 507.15625 L 141.84375 517.78125 L 17.84375 517.78125 L 17.84375 535.5 L 28.46875 535.5 L 28.46875 553.21875 L 71 553.21875 L 71 563.84375 L 106.4375 563.84375 L 106.4375 553.21875 L 212.71875 553.21875 L 212.71875 563.84375 L 248.15625 563.84375 L 248.15625 553.21875 L 354.46875 553.21875 L 354.46875 563.84375 L 389.875 563.84375 L 389.875 553.21875 L 503.28125 553.21875 L 503.28125 535.5 L 513.90625 535.5 L 513.90625 517.78125 L 460.75 517.78125 L 460.75 507.15625 L 425.3125 507.15625 L 425.3125 517.78125 L 319.03125 517.78125 L 319.03125 507.15625 L 283.59375 507.15625 L 283.59375 517.78125 L 177.28125 517.78125 L 177.28125 507.15625 L 141.84375 507.15625 z "
         transform="matrix(0.8,0,0,-0.8,-216.33139,-2309.9517)"
         id="rect6997-8-1" />
      <path
         style="fill:none;fill-opacity:1;stroke:#ff0000;stroke-opacity:1;stroke-width:0.35433071;stroke-miterlimit:4;stroke-dasharray:none"
         d="M 72.40625 582.09375 L 72.40625 592.71875 L 19.25 592.71875 L 19.25 610.4375 L 29.875 610.4375 L 29.875 628.15625 L 143.28125 628.15625 L 143.28125 638.78125 L 178.71875 638.78125 L 178.71875 628.15625 L 285 628.15625 L 285 638.78125 L 320.4375 638.78125 L 320.4375 628.15625 L 426.75 628.15625 L 426.75 638.78125 L 462.15625 638.78125 L 462.15625 628.15625 L 504.6875 628.15625 L 504.6875 610.4375 L 515.3125 610.4375 L 515.3125 592.71875 L 391.3125 592.71875 L 391.3125 582.09375 L 355.875 582.09375 L 355.875 592.71875 L 249.5625 592.71875 L 249.5625 582.09375 L 214.125 582.09375 L 214.125 592.71875 L 107.84375 592.71875 L 107.84375 582.09375 L 72.40625 582.09375 z "
         transform="matrix(0.8,0,0,-0.8,-216.33139,-2309.9517)"
         id="rect6997-8-4" />
      <path
         style="fill:none;fill-opacity:1;stroke:#ff0000;stroke-opacity:1;stroke-width:0.35433071;stroke-miterlimit:4;stroke-dasharray:none"
         d="M 835.8125 15.78125 L 835.8125 26.40625 L 818.09375 26.40625 L 818.09375 51.21875 L 807.46875 51.21875 L 807.46875 86.625 L 818.09375 86.625 L 818.09375 192.9375 L 807.46875 192.9375 L 807.46875 228.375 L 818.09375 228.375 L 818.09375 324.03125 L 835.8125 324.03125 L 835.8125 334.65625 L 853.53125 334.65625 L 853.53125 299.25 L 864.15625 299.25 L 864.15625 263.8125 L 853.53125 263.8125 L 853.53125 157.5 L 864.15625 157.5 L 864.15625 122.0625 L 853.53125 122.0625 L 853.53125 15.78125 L 835.8125 15.78125 z "
         transform="matrix(0.8,0,0,-0.8,-216.33139,-2309.9517)"
         id="rect6997-0-0-9" />
      <path
         style="fill:none;fill-opacity:1;stroke:#ff0000;stroke-opacity:1;stroke-width:0.35433071;stroke-miterlimit:4;stroke-dasharray:none"
         d="M 899.4375 16.46875 L 899.4375 27.09375 L 881.71875 27.09375 L 881.71875 122.78125 L 871.09375 122.78125 L 871.09375 158.21875 L 881.71875 158.21875 L 881.71875 264.5 L 871.09375 264.5 L 871.09375 299.9375 L 881.71875 299.9375 L 881.71875 324.75 L 899.4375 324.75 L 899.4375 335.375 L 917.15625 335.375 L 917.15625 229.0625 L 927.78125 229.0625 L 927.78125 193.65625 L 917.15625 193.65625 L 917.15625 87.34375 L 927.78125 87.34375 L 927.78125 51.90625 L 917.15625 51.90625 L 917.15625 16.46875 L 899.4375 16.46875 z "
         transform="matrix(0.8,0,0,-0.8,-216.33139,-2309.9517)"
         id="rect6997-0-4-1" />
      <path
         style="fill:none;fill-opacity:1;stroke:#ff0000;stroke-opacity:1;stroke-width:0.35433071;stroke-miterlimit:4;stroke-dasharray:none"
         d="M 71.6875 647.84375 L 71.6875 658.5 L 18.5625 658.5 L 18.5625 676.21875 L 29.1875 676.21875 L 29.1875 693.90625 L 142.5625 693.90625 L 142.5625 704.5625 L 178 704.5625 L 178 693.90625 L 284.28125 693.90625 L 284.28125 704.5625 L 319.71875 704.5625 L 319.71875 693.90625 L 426.03125 693.90625 L 426.03125 704.5625 L 461.46875 704.5625 L 461.46875 693.90625 L 503.96875 693.90625 L 503.96875 676.21875 L 514.625 676.21875 L 514.625 658.5 L 390.59375 658.5 L 390.59375 647.84375 L 355.15625 647.84375 L 355.15625 658.5 L 248.875 658.5 L 248.875 647.84375 L 213.4375 647.84375 L 213.4375 658.5 L 107.125 658.5 L 107.125 647.84375 L 71.6875 647.84375 z "
         transform="matrix(0.8,0,0,-0.8,-216.33139,-2309.9517)"
         id="rect6997-8-1-5" />
      <path
         style="fill:none;fill-opacity:1;stroke:#ff0000;stroke-opacity:1;stroke-width:0.35433071;stroke-miterlimit:4;stroke-dasharray:none"
         d="M 143.96875 722.8125 L 143.96875 733.4375 L 19.96875 733.4375 L 19.96875 751.15625 L 30.59375 751.15625 L 30.59375 768.875 L 73.125 768.875 L 73.125 779.5 L 108.53125 779.5 L 108.53125 768.875 L 214.84375 768.875 L 214.84375 779.5 L 250.28125 779.5 L 250.28125 768.875 L 356.5625 768.875 L 356.5625 779.5 L 392 779.5 L 392 768.875 L 505.40625 768.875 L 505.40625 751.15625 L 516.03125 751.15625 L 516.03125 733.4375 L 462.875 733.4375 L 462.875 722.8125 L 427.4375 722.8125 L 427.4375 733.4375 L 321.15625 733.4375 L 321.15625 722.8125 L 285.71875 722.8125 L 285.71875 733.4375 L 179.40625 733.4375 L 179.40625 722.8125 L 143.96875 722.8125 z "
         transform="matrix(0.8,0,0,-0.8,-216.33139,-2309.9517)"
         id="rect6997-8-4-4" />
      <path
         style="fill:none;fill-opacity:1;stroke:#ff0000;stroke-opacity:1;stroke-width:0.35433071;stroke-miterlimit:4;stroke-dasharray:none"
         d="M 591 342.6875 L 591 353.3125 L 537.84375 353.3125 L 537.84375 371.03125 L 548.5 371.03125 L 548.5 388.71875 L 537.84375 388.71875 L 537.84375 406.4375 L 591 406.4375 L 591 417.09375 L 626.4375 417.09375 L 626.4375 406.4375 L 661.875 406.4375 L 661.875 417.09375 L 697.3125 417.09375 L 697.3125 406.4375 L 732.75 406.4375 L 732.75 417.09375 L 768.15625 417.09375 L 768.15625 406.4375 L 803.59375 406.4375 L 803.59375 417.09375 L 839.03125 417.09375 L 839.03125 406.4375 L 874.46875 406.4375 L 874.46875 417.09375 L 909.90625 417.09375 L 909.90625 406.4375 L 945.34375 406.4375 L 945.34375 417.09375 L 980.78125 417.09375 L 980.78125 406.4375 L 1033.9062 406.4375 L 1033.9062 388.71875 L 1023.2812 388.71875 L 1023.2812 371.03125 L 1033.9062 371.03125 L 1033.9062 353.3125 L 909.90625 353.3125 L 909.90625 342.6875 L 874.46875 342.6875 L 874.46875 353.3125 L 768.15625 353.3125 L 768.15625 342.6875 L 732.75 342.6875 L 732.75 353.3125 L 626.4375 353.3125 L 626.4375 342.6875 L 591 342.6875 z "
         transform="matrix(0.8,0,0,-0.8,-216.33139,-2309.9517)"
         id="rect6997-8-12" />
      <path
         style="fill:none;fill-opacity:1;stroke:#ff0000;stroke-opacity:1;stroke-width:0.35433071;stroke-miterlimit:4;stroke-dasharray:none"
         d="M 662 429.71875 L 662 440.34375 L 537.96875 440.34375 L 537.96875 458.0625 L 548.625 458.0625 L 548.625 475.78125 L 537.96875 475.78125 L 537.96875 493.5 L 591.125 493.5 L 591.125 504.125 L 626.5625 504.125 L 626.5625 493.5 L 662 493.5 L 662 504.125 L 697.4375 504.125 L 697.4375 493.5 L 732.875 493.5 L 732.875 504.125 L 768.28125 504.125 L 768.28125 493.5 L 803.71875 493.5 L 803.71875 504.125 L 839.15625 504.125 L 839.15625 493.5 L 874.59375 493.5 L 874.59375 504.125 L 910.03125 504.125 L 910.03125 493.5 L 945.46875 493.5 L 945.46875 504.125 L 980.90625 504.125 L 980.90625 493.5 L 1034.0312 493.5 L 1034.0312 475.78125 L 1023.4062 475.78125 L 1023.4062 458.0625 L 1034.0312 458.0625 L 1034.0312 440.34375 L 980.90625 440.34375 L 980.90625 429.71875 L 945.46875 429.71875 L 945.46875 440.34375 L 839.15625 440.34375 L 839.15625 429.71875 L 803.71875 429.71875 L 803.71875 440.34375 L 697.4375 440.34375 L 697.4375 429.71875 L 662 429.71875 z "
         transform="matrix(0.8,0,0,-0.8,-216.33139,-2309.9517)"
         id="rect6997-8-6-3" />
      <path
         style="fill:none;fill-opacity:1;stroke:#ff0000;stroke-opacity:1;stroke-width:0.35433071;stroke-miterlimit:4;stroke-dasharray:none"
         d="M 588.53125 519.8125 L 588.53125 530.4375 L 535.375 530.4375 L 535.375 548.15625 L 546 548.15625 L 546 565.875 L 535.375 565.875 L 535.375 583.59375 L 659.40625 583.59375 L 659.40625 594.21875 L 694.84375 594.21875 L 694.84375 583.59375 L 801.125 583.59375 L 801.125 594.21875 L 836.5625 594.21875 L 836.5625 583.59375 L 942.875 583.59375 L 942.875 594.21875 L 978.28125 594.21875 L 978.28125 583.59375 L 1031.4375 583.59375 L 1031.4375 565.875 L 1020.8125 565.875 L 1020.8125 548.15625 L 1031.4375 548.15625 L 1031.4375 530.4375 L 907.4375 530.4375 L 907.4375 519.8125 L 872 519.8125 L 872 530.4375 L 765.6875 530.4375 L 765.6875 519.8125 L 730.25 519.8125 L 730.25 530.4375 L 623.96875 530.4375 L 623.96875 519.8125 L 588.53125 519.8125 z "
         transform="matrix(0.8,0,0,-0.8,-216.33139,-2309.9517)"
         id="rect6997-8-12-2" />
      <path
         style="fill:none;fill-opacity:1;stroke:#ff0000;stroke-opacity:1;stroke-width:0.35433071;stroke-miterlimit:4;stroke-dasharray:none"
         d="M 659.53125 606.84375 L 659.53125 617.5 L 535.5 617.5 L 535.5 635.1875 L 546.125 635.1875 L 546.125 652.90625 L 535.5 652.90625 L 535.5 670.625 L 588.65625 670.625 L 588.65625 681.28125 L 624.09375 681.28125 L 624.09375 670.625 L 730.375 670.625 L 730.375 681.28125 L 765.8125 681.28125 L 765.8125 670.625 L 872.125 670.625 L 872.125 681.28125 L 907.5625 681.28125 L 907.5625 670.625 L 1031.5625 670.625 L 1031.5625 652.90625 L 1020.9375 652.90625 L 1020.9375 635.1875 L 1031.5625 635.1875 L 1031.5625 617.5 L 978.40625 617.5 L 978.40625 606.84375 L 943 606.84375 L 943 617.5 L 836.6875 617.5 L 836.6875 606.84375 L 801.25 606.84375 L 801.25 617.5 L 694.96875 617.5 L 694.96875 606.84375 L 659.53125 606.84375 z "
         transform="matrix(0.8,0,0,-0.8,-216.33139,-2309.9517)"
         id="rect6997-8-6-3-6" />
      <path
         style="fill:none;fill-opacity:1;stroke:#ff0000;stroke-opacity:1;stroke-width:0.35433071;stroke-miterlimit:4;stroke-dasharray:none"
         d="M 591.34375 705.78125 L 591.34375 716.40625 L 538.21875 716.40625 L 538.21875 734.125 L 548.84375 734.125 L 548.84375 751.84375 L 538.21875 751.84375 L 538.21875 769.5625 L 662.21875 769.5625 L 662.21875 780.1875 L 697.65625 780.1875 L 697.65625 769.5625 L 803.96875 769.5625 L 803.96875 780.1875 L 839.375 780.1875 L 839.375 769.5625 L 945.6875 769.5625 L 945.6875 780.1875 L 981.125 780.1875 L 981.125 769.5625 L 1034.2812 769.5625 L 1034.2812 751.84375 L 1023.6562 751.84375 L 1023.6562 734.125 L 1034.2812 734.125 L 1034.2812 716.40625 L 910.25 716.40625 L 910.25 705.78125 L 874.8125 705.78125 L 874.8125 716.40625 L 768.53125 716.40625 L 768.53125 705.78125 L 733.09375 705.78125 L 733.09375 716.40625 L 626.78125 716.40625 L 626.78125 705.78125 L 591.34375 705.78125 z "
         transform="matrix(0.8,0,0,-0.8,-216.33139,-2309.9517)"
         id="rect6997-8-12-6" />
      <path
         style="fill:none;fill-opacity:1;stroke:#ff0000;stroke-opacity:1;stroke-width:0.35433071;stroke-miterlimit:4;stroke-dasharray:none"
         d="M 662.34375 792.8125 L 662.34375 803.46875 L 538.34375 803.46875 L 538.34375 821.1875 L 548.96875 821.1875 L 548.96875 838.875 L 538.34375 838.875 L 538.34375 856.59375 L 591.46875 856.59375 L 591.46875 867.25 L 626.90625 867.25 L 626.90625 856.59375 L 733.21875 856.59375 L 733.21875 867.25 L 768.65625 867.25 L 768.65625 856.59375 L 874.9375 856.59375 L 874.9375 867.25 L 910.375 867.25 L 910.375 856.59375 L 1034.4062 856.59375 L 1034.4062 838.875 L 1023.7812 838.875 L 1023.7812 821.1875 L 1034.4062 821.1875 L 1034.4062 803.46875 L 981.25 803.46875 L 981.25 792.8125 L 945.8125 792.8125 L 945.8125 803.46875 L 839.5 803.46875 L 839.5 792.8125 L 804.09375 792.8125 L 804.09375 803.46875 L 697.78125 803.46875 L 697.78125 792.8125 L 662.34375 792.8125 z "
         transform="matrix(0.8,0,0,-0.8,-216.33139,-2309.9517)"
         id="rect6997-8-6-3-3" />
      <path
         style="fill:none;fill-opacity:1;stroke:#ff0000;stroke-opacity:1;stroke-width:0.35433071;stroke-miterlimit:4;stroke-dasharray:none"
         d="M 960.53125 16.5625 L 960.53125 27.1875 L 942.8125 27.1875 L 942.8125 122.875 L 932.1875 122.875 L 932.1875 158.3125 L 942.8125 158.3125 L 942.8125 264.59375 L 932.1875 264.59375 L 932.1875 300.03125 L 942.8125 300.03125 L 942.8125 324.84375 L 960.53125 324.84375 L 960.53125 335.46875 L 978.25 335.46875 L 978.25 324.84375 L 995.9375 324.84375 L 995.9375 27.1875 L 978.25 27.1875 L 978.25 16.5625 L 960.53125 16.5625 z M 995.9375 27.1875 L 995.96875 27.1875 L 995.96875 16.5625 L 995.9375 16.5625 L 995.9375 27.1875 z M 995.9375 324.84375 L 995.9375 335.46875 L 995.96875 335.46875 L 995.96875 324.84375 L 995.9375 324.84375 z M 995.96875 52 L 995.96875 87.4375 L 1006.5938 87.4375 L 1006.5938 52 L 995.96875 52 z M 995.96875 122.875 L 995.96875 158.3125 L 1006.5938 158.3125 L 1006.5938 122.875 L 995.96875 122.875 z M 995.96875 193.71875 L 995.96875 229.15625 L 1006.5938 229.15625 L 1006.5938 193.71875 L 995.96875 193.71875 z M 995.96875 264.59375 L 995.96875 300.03125 L 1006.5938 300.03125 L 1006.5938 264.59375 L 995.96875 264.59375 z "
         transform="matrix(0.8,0,0,-0.8,-216.33139,-2309.9517)"
         id="rect6997-0-02" />
      <path
         style="fill:none;fill-opacity:1;stroke:#ff0000;stroke-opacity:1;stroke-width:0.35433071;stroke-miterlimit:4;stroke-dasharray:none"
         d="M 1044.2188 14.125 L 1044.2188 24.75 L 1026.5 24.75 L 1026.5 49.5625 L 1015.875 49.5625 L 1015.875 84.96875 L 1026.5 84.96875 L 1026.5 191.28125 L 1015.875 191.28125 L 1015.875 226.71875 L 1026.5 226.71875 L 1026.5 322.375 L 1044.2188 322.375 L 1044.2188 333 L 1061.9375 333 L 1061.9375 322.375 L 1079.6562 322.375 L 1079.6562 297.59375 L 1090.2812 297.59375 L 1090.2812 262.15625 L 1079.6562 262.15625 L 1079.6562 226.71875 L 1090.2812 226.71875 L 1090.2812 191.28125 L 1079.6562 191.28125 L 1079.6562 155.84375 L 1090.2812 155.84375 L 1090.2812 120.40625 L 1079.6562 120.40625 L 1079.6562 84.96875 L 1090.2812 84.96875 L 1090.2812 49.5625 L 1079.6562 49.5625 L 1079.6562 24.75 L 1061.9375 24.75 L 1061.9375 14.125 L 1044.2188 14.125 z "
         transform="matrix(0.8,0,0,-0.8,-216.33139,-2309.9517)"
         id="rect6997-0-0-8" />
      <path
         style="fill:none;fill-opacity:1;stroke:#ff0000;stroke-opacity:1;stroke-width:0.35433071;stroke-miterlimit:4;stroke-dasharray:none"
         d="M 1128.75 11.6875 L 1128.75 22.3125 L 1111.0312 22.3125 L 1111.0312 118 L 1100.4062 118 L 1100.4062 153.4375 L 1111.0312 153.4375 L 1111.0312 259.71875 L 1100.4062 259.71875 L 1100.4062 295.15625 L 1111.0312 295.15625 L 1111.0312 319.96875 L 1128.75 319.96875 L 1128.75 330.59375 L 1146.4688 330.59375 L 1146.4688 319.96875 L 1164.1875 319.96875 L 1164.1875 224.28125 L 1174.8125 224.28125 L 1174.8125 188.84375 L 1164.1875 188.84375 L 1164.1875 82.5625 L 1174.8125 82.5625 L 1174.8125 47.125 L 1164.1875 47.125 L 1164.1875 22.3125 L 1146.4688 22.3125 L 1146.4688 11.6875 L 1128.75 11.6875 z "
         transform="matrix(0.8,0,0,-0.8,-216.33139,-2309.9517)"
         id="rect6997-0-02-1" />
      <path
         style="fill:none;fill-opacity:1;stroke:#ff0000;stroke-opacity:1;stroke-width:0.35433071;stroke-miterlimit:4;stroke-dasharray:none"
         d="M 1212.4375 9.25 L 1212.4375 19.875 L 1194.7188 19.875 L 1194.7188 44.6875 L 1184.0938 44.6875 L 1184.0938 80.09375 L 1194.7188 80.09375 L 1194.7188 186.40625 L 1184.0938 186.40625 L 1184.0938 221.84375 L 1194.7188 221.84375 L 1194.7188 317.5 L 1212.4375 317.5 L 1212.4375 328.125 L 1230.1562 328.125 L 1230.1562 317.5 L 1247.875 317.5 L 1247.875 292.71875 L 1258.5 292.71875 L 1258.5 257.28125 L 1247.875 257.28125 L 1247.875 150.96875 L 1258.5 150.96875 L 1258.5 115.53125 L 1247.875 115.53125 L 1247.875 19.875 L 1230.1562 19.875 L 1230.1562 9.25 L 1212.4375 9.25 z "
         transform="matrix(0.8,0,0,-0.8,-216.33139,-2309.9517)"
         id="rect6997-0-0-8-8" />
      <path
         style="fill:none;fill-opacity:1;stroke:#ff0000;stroke-opacity:1;stroke-width:0.35433071;stroke-miterlimit:4;stroke-dasharray:none"
         d="M 1297.0312 10.28125 L 1297.0312 20.90625 L 1279.3125 20.90625 L 1279.3125 116.5625 L 1268.6875 116.5625 L 1268.6875 152 L 1279.3125 152 L 1279.3125 258.3125 L 1268.6875 258.3125 L 1268.6875 293.75 L 1279.3125 293.75 L 1279.3125 318.53125 L 1297.0312 318.53125 L 1297.0312 329.1875 L 1314.75 329.1875 L 1314.75 318.53125 L 1332.4688 318.53125 L 1332.4688 222.875 L 1343.0938 222.875 L 1343.0938 187.4375 L 1332.4688 187.4375 L 1332.4688 81.15625 L 1343.0938 81.15625 L 1343.0938 45.71875 L 1332.4688 45.71875 L 1332.4688 20.90625 L 1314.75 20.90625 L 1314.75 10.28125 L 1297.0312 10.28125 z "
         id="rect6997-0-02-4"
         transform="matrix(0.8,0,0,-0.8,-216.33139,-2309.9517)" />
      <path
         style="fill:none;fill-opacity:1;stroke:#ff0000;stroke-opacity:1;stroke-width:0.35433071;stroke-miterlimit:4;stroke-dasharray:none"
         d="M 1363.0312 7.8125 L 1363.0312 7.84375 L 1380.75 7.84375 L 1380.75 7.8125 L 1363.0312 7.8125 z M 1380.75 7.84375 L 1380.75 18.46875 L 1363.0312 18.46875 L 1363.0312 43.25 L 1352.4062 43.25 L 1352.4062 78.6875 L 1363.0312 78.6875 L 1363.0312 185 L 1352.4062 185 L 1352.4062 220.4375 L 1363.0312 220.4375 L 1363.0312 316.09375 L 1380.75 316.09375 L 1380.75 326.71875 L 1398.4375 326.71875 L 1398.4375 316.09375 L 1416.1562 316.09375 L 1416.1562 291.28125 L 1426.8125 291.28125 L 1426.8125 255.875 L 1416.1562 255.875 L 1416.1562 149.5625 L 1426.8125 149.5625 L 1426.8125 114.125 L 1416.1562 114.125 L 1416.1562 18.46875 L 1398.4375 18.46875 L 1398.4375 7.84375 L 1380.75 7.84375 z "
         transform="matrix(0.8,0,0,-0.8,-216.33139,-2309.9517)"
         id="rect6997-0-0-8-80" />
      <path
         inkscape:connector-curvature="0"
         style="fill:none;fill-opacity:1;stroke:#ff0000;stroke-opacity:1;stroke-width:0.28346457;stroke-miterlimit:4;stroke-dasharray:none"
         d="m 644.20669,-2598.3365 0,-28.35 8.5,0 0,-28.35 -8.5,0 0,-28.325 8.5,0 0,-28.35 -8.5,0 0,-28.35 8.5,0 0,-28.35 -8.5,0 0,-28.35 8.5,0 0,-28.35 -8.5,0 0,-28.35 42.525,0 0,8.525 28.35,0 0,-8.525 28.325,0 0,8.525 28.35,0 0,-8.525 28.35,0 0,8.525 28.35,0 0,-8.525 28.35,0 0,8.525 28.35,0 0,-8.525 28.35,0 0,8.525 28.325,0 0,-8.525 28.35,0 0,8.525 28.35,0 0,-8.525 42.52501,0 0,28.35 -8.5,0 0,28.35 8.5,0 0,28.35 -8.5,0 0,28.35 8.5,0 0,28.35 -8.5,0 0,28.35 8.5,0 0,28.325 -8.5,0 0,28.35 8.5,0 0,28.35 -42.52501,0 0,-8.5 -28.35,0 0,8.5 -28.35,0 0,-8.5 -28.325,0 0,8.5 -28.35,0 0,-8.5 -28.35,0 0,8.5 -28.35,0 0,-8.5 -28.35,0 0,8.5 -28.35,0 0,-8.5 -28.35,0 0,8.5 -28.325,0 0,-8.5 -28.35,0 0,8.5 -42.525,0 z"
         id="rect6720-7" />
      <path
         sodipodi:type="arc"
         style="fill:none;stroke:#ff0000;stroke-width:0.38008934;stroke-miterlimit:4;stroke-opacity:1;stroke-dasharray:none"
         id="path6716-3"
         sodipodi:cx="95.812965"
         sodipodi:cy="110.87279"
         sodipodi:rx="7.4246211"
         sodipodi:ry="7.4246211"
         d="m 103.23759,110.87279 c 0,4.1005 -3.32412,7.42462 -7.424625,7.42462 -4.100505,0 -7.424621,-3.32412 -7.424621,-7.42462 0,-4.10051 3.324116,-7.42462 7.424621,-7.42462 4.100505,0 7.424625,3.32411 7.424625,7.42462 z"
         transform="matrix(0.74452268,0,0,-0.74452268,592.71251,-2535.6299)" />
      <path
         sodipodi:type="arc"
         style="fill:none;stroke:#ff0000;stroke-width:0.38008934;stroke-miterlimit:4;stroke-opacity:1;stroke-dasharray:none"
         id="path6716-9-2"
         sodipodi:cx="95.812965"
         sodipodi:cy="110.87279"
         sodipodi:rx="7.4246211"
         sodipodi:ry="7.4246211"
         d="m 103.23759,110.87279 c 0,4.1005 -3.32412,7.42462 -7.424625,7.42462 -4.100505,0 -7.424621,-3.32412 -7.424621,-7.42462 0,-4.10051 3.324116,-7.42462 7.424621,-7.42462 4.100505,0 7.424625,3.32411 7.424625,7.42462 z"
         transform="matrix(0.74452268,0,0,-0.74452268,592.71251,-2751.063)" />
      <path
         sodipodi:type="arc"
         style="fill:none;stroke:#ff0000;stroke-width:0.38008934;stroke-miterlimit:4;stroke-opacity:1;stroke-dasharray:none"
         id="path6716-7-7"
         sodipodi:cx="95.812965"
         sodipodi:cy="110.87279"
         sodipodi:rx="7.4246211"
         sodipodi:ry="7.4246211"
         d="m 103.23759,110.87279 c 0,4.1005 -3.32412,7.42462 -7.424625,7.42462 -4.100505,0 -7.424621,-3.32412 -7.424621,-7.42462 0,-4.10051 3.324116,-7.42462 7.424621,-7.42462 4.100505,0 7.424625,3.32411 7.424625,7.42462 z"
         transform="matrix(0.74452268,0,0,-0.74452268,949.87787,-2535.6299)" />
      <path
         sodipodi:type="arc"
         style="fill:none;stroke:#ff0000;stroke-width:0.38008934;stroke-miterlimit:4;stroke-opacity:1;stroke-dasharray:none"
         id="path6716-9-3-2"
         sodipodi:cx="95.812965"
         sodipodi:cy="110.87279"
         sodipodi:rx="7.4246211"
         sodipodi:ry="7.4246211"
         d="m 103.23759,110.87279 c 0,4.1005 -3.32412,7.42462 -7.424625,7.42462 -4.100505,0 -7.424621,-3.32412 -7.424621,-7.42462 0,-4.10051 3.324116,-7.42462 7.424621,-7.42462 4.100505,0 7.424625,3.32411 7.424625,7.42462 z"
         transform="matrix(0.74452268,0,0,-0.74452268,949.87787,-2751.063)" />
      <path
         inkscape:connector-curvature="0"
         style="fill:none;fill-opacity:1;stroke:#ff0000;stroke-opacity:1;stroke-width:0.28346457;stroke-miterlimit:4;stroke-dasharray:none"
         d="m 662.30863,-2872.1282 0,-28.35 8.5,0 0,-28.35 -8.5,0 0,-28.325 8.5,0 0,-28.35 -8.5,0 0,-28.35 8.5,0 0,-28.35 -8.5,0 0,-28.35 8.5,0 0,-28.35 -8.5,0 0,-28.35 42.525,0 0,8.525 28.35,0 0,-8.525 28.325,0 0,8.525 28.35,0 0,-8.525 28.35,0 0,8.525 28.35,0 0,-8.525 28.35,0 0,8.525 28.35,0 0,-8.525 28.34998,0 0,8.525 28.325,0 0,-8.525 28.35,0 0,8.525 28.34999,0 0,-8.525 42.525,0 0,28.35 -8.5,0 0,28.35 8.5,0 0,28.35 -8.5,0 0,28.35 8.5,0 0,28.35 -8.5,0 0,28.35 8.5,0 0,28.325 -8.5,0 0,28.35 8.5,0 0,28.35 -42.525,0 0,-8.5 -28.34999,0 0,8.5 -28.35,0 0,-8.5 -28.325,0 0,8.5 -28.34998,0 0,-8.5 -28.35,0 0,8.5 -28.35,0 0,-8.5 -28.35,0 0,8.5 -28.35,0 0,-8.5 -28.35,0 0,8.5 -28.325,0 0,-8.5 -28.35,0 0,8.5 -42.525,0 z"
         id="rect6720-5" />
      <path
         sodipodi:type="arc"
         style="fill:none;stroke:#ff0000;stroke-width:0.38008934;stroke-miterlimit:4;stroke-opacity:1;stroke-dasharray:none"
         id="path6716-6"
         sodipodi:cx="95.812965"
         sodipodi:cy="110.87279"
         sodipodi:rx="7.4246211"
         sodipodi:ry="7.4246211"
         d="m 103.23759,110.87279 c 0,4.1005 -3.32412,7.42462 -7.424625,7.42462 -4.100505,0 -7.424621,-3.32412 -7.424621,-7.42462 0,-4.10051 3.324116,-7.42462 7.424621,-7.42462 4.100505,0 7.424625,3.32411 7.424625,7.42462 z"
         transform="matrix(0.74452268,0,0,-0.74452268,610.81445,-2809.4216)" />
      <path
         sodipodi:type="arc"
         style="fill:none;stroke:#ff0000;stroke-width:0.38008934;stroke-miterlimit:4;stroke-opacity:1;stroke-dasharray:none"
         id="path6716-9-6"
         sodipodi:cx="95.812965"
         sodipodi:cy="110.87279"
         sodipodi:rx="7.4246211"
         sodipodi:ry="7.4246211"
         d="m 103.23759,110.87279 c 0,4.1005 -3.32412,7.42462 -7.424625,7.42462 -4.100505,0 -7.424621,-3.32412 -7.424621,-7.42462 0,-4.10051 3.324116,-7.42462 7.424621,-7.42462 4.100505,0 7.424625,3.32411 7.424625,7.42462 z"
         transform="matrix(0.74452268,0,0,-0.74452268,610.81445,-3024.8547)" />
      <path
         sodipodi:type="arc"
         style="fill:none;stroke:#ff0000;stroke-width:0.38008934;stroke-miterlimit:4;stroke-opacity:1;stroke-dasharray:none"
         id="path6716-7-2"
         sodipodi:cx="95.812965"
         sodipodi:cy="110.87279"
         sodipodi:rx="7.4246211"
         sodipodi:ry="7.4246211"
         d="m 103.23759,110.87279 c 0,4.1005 -3.32412,7.42462 -7.424625,7.42462 -4.100505,0 -7.424621,-3.32412 -7.424621,-7.42462 0,-4.10051 3.324116,-7.42462 7.424621,-7.42462 4.100505,0 7.424625,3.32411 7.424625,7.42462 z"
         transform="matrix(0.74452268,0,0,-0.74452268,967.97981,-2809.4216)" />
      <path
         sodipodi:type="arc"
         style="fill:none;stroke:#ff0000;stroke-width:0.38008934;stroke-miterlimit:4;stroke-opacity:1;stroke-dasharray:none"
         id="path6716-9-3-6"
         sodipodi:cx="95.812965"
         sodipodi:cy="110.87279"
         sodipodi:rx="7.4246211"
         sodipodi:ry="7.4246211"
         d="m 103.23759,110.87279 c 0,4.1005 -3.32412,7.42462 -7.424625,7.42462 -4.100505,0 -7.424621,-3.32412 -7.424621,-7.42462 0,-4.10051 3.324116,-7.42462 7.424621,-7.42462 4.100505,0 7.424625,3.32411 7.424625,7.42462 z"
         transform="matrix(0.74452268,0,0,-0.74452268,967.97981,-3024.8547)" />
      <path
         inkscape:connector-curvature="0"
         style="fill:none;fill-opacity:1;stroke:#ff0000;stroke-opacity:1;stroke-width:0.28346457;stroke-miterlimit:4;stroke-dasharray:none"
         d="m 1074.1276,-2602.8619 0,-28.35 8.5,0 0,-28.35 -8.5,0 0,-28.325 8.5,0 0,-28.35 -8.5,0 0,-28.35 8.5,0 0,-28.35 -8.5,0 0,-28.35 8.5,0 0,-28.35 -8.5,0 0,-28.35 42.525,0 0,8.525 28.35,0 0,-8.525 28.325,0 0,8.525 28.35,0 0,-8.525 28.35,0 0,8.525 28.35,0 0,-8.525 28.35,0 0,8.525 28.35,0 0,-8.525 28.35,0 0,8.525 28.325,0 0,-8.525 28.3501,0 0,8.525 28.35,0 0,-8.525 42.525,0 0,28.35 -8.5,0 0,28.35 8.5,0 0,28.35 -8.5,0 0,28.35 8.5,0 0,28.35 -8.5,0 0,28.35 8.5,0 0,28.325 -8.5,0 0,28.35 8.5,0 0,28.35 -42.525,0 0,-8.5 -28.35,0 0,8.5 -28.3501,0 0,-8.5 -28.325,0 0,8.5 -28.35,0 0,-8.5 -28.35,0 0,8.5 -28.35,0 0,-8.5 -28.35,0 0,8.5 -28.35,0 0,-8.5 -28.35,0 0,8.5 -28.325,0 0,-8.5 -28.35,0 0,8.5 -42.525,0 z"
         id="rect6720-77" />
      <path
         sodipodi:type="arc"
         style="fill:none;stroke:#ff0000;stroke-width:0.38008934;stroke-miterlimit:4;stroke-opacity:1;stroke-dasharray:none"
         id="path6716-8"
         sodipodi:cx="95.812965"
         sodipodi:cy="110.87279"
         sodipodi:rx="7.4246211"
         sodipodi:ry="7.4246211"
         d="m 103.23759,110.87279 c 0,4.1005 -3.32412,7.42462 -7.424625,7.42462 -4.100505,0 -7.424621,-3.32412 -7.424621,-7.42462 0,-4.10051 3.324116,-7.42462 7.424621,-7.42462 4.100505,0 7.424625,3.32411 7.424625,7.42462 z"
         transform="matrix(0.74452268,0,0,-0.74452268,1022.6334,-2540.1553)" />
      <path
         sodipodi:type="arc"
         style="fill:none;stroke:#ff0000;stroke-width:0.38008934;stroke-miterlimit:4;stroke-opacity:1;stroke-dasharray:none"
         id="path6716-9-8"
         sodipodi:cx="95.812965"
         sodipodi:cy="110.87279"
         sodipodi:rx="7.4246211"
         sodipodi:ry="7.4246211"
         d="m 103.23759,110.87279 c 0,4.1005 -3.32412,7.42462 -7.424625,7.42462 -4.100505,0 -7.424621,-3.32412 -7.424621,-7.42462 0,-4.10051 3.324116,-7.42462 7.424621,-7.42462 4.100505,0 7.424625,3.32411 7.424625,7.42462 z"
         transform="matrix(0.74452268,0,0,-0.74452268,1022.6334,-2755.5884)" />
      <path
         sodipodi:type="arc"
         style="fill:none;stroke:#ff0000;stroke-width:0.38008934;stroke-miterlimit:4;stroke-opacity:1;stroke-dasharray:none"
         id="path6716-7-4"
         sodipodi:cx="95.812965"
         sodipodi:cy="110.87279"
         sodipodi:rx="7.4246211"
         sodipodi:ry="7.4246211"
         d="m 103.23759,110.87279 c 0,4.1005 -3.32412,7.42462 -7.424625,7.42462 -4.100505,0 -7.424621,-3.32412 -7.424621,-7.42462 0,-4.10051 3.324116,-7.42462 7.424621,-7.42462 4.100505,0 7.424625,3.32411 7.424625,7.42462 z"
         transform="matrix(0.74452268,0,0,-0.74452268,1379.7988,-2540.1553)" />
      <path
         sodipodi:type="arc"
         style="fill:none;stroke:#ff0000;stroke-width:0.38008934;stroke-miterlimit:4;stroke-opacity:1;stroke-dasharray:none"
         id="path6716-9-3-5"
         sodipodi:cx="95.812965"
         sodipodi:cy="110.87279"
         sodipodi:rx="7.4246211"
         sodipodi:ry="7.4246211"
         d="m 103.23759,110.87279 c 0,4.1005 -3.32412,7.42462 -7.424625,7.42462 -4.100505,0 -7.424621,-3.32412 -7.424621,-7.42462 0,-4.10051 3.324116,-7.42462 7.424621,-7.42462 4.100505,0 7.424625,3.32411 7.424625,7.42462 z"
         transform="matrix(0.74452268,0,0,-0.74452268,1379.7988,-2755.5884)" />
      <path
         inkscape:connector-curvature="0"
         style="fill:none;fill-opacity:1;stroke:#ff0000;stroke-opacity:1;stroke-width:0.28346457;stroke-miterlimit:4;stroke-dasharray:none"
         d="m 1078.6531,-2867.6027 0,-28.35 8.5,0 0,-28.35 -8.5,0 0,-28.325 8.5,0 0,-28.35 -8.5,0 0,-28.35 8.5,0 0,-28.35 -8.5,0 0,-28.35 8.5,0 0,-28.35 -8.5,0 0,-28.35 42.525,0 0,8.525 28.35,0 0,-8.525 28.325,0 0,8.525 28.35,0 0,-8.525 28.35,0 0,8.525 28.35,0 0,-8.525 28.35,0 0,8.525 28.35,0 0,-8.525 28.35,0 0,8.525 28.325,0 0,-8.525 28.35,0 0,8.525 28.35,0 0,-8.525 42.525,0 0,28.35 -8.5,0 0,28.35 8.5,0 0,28.35 -8.5,0 0,28.35 8.5,0 0,28.35 -8.5,0 0,28.35 8.5,0 0,28.325 -8.5,0 0,28.35 8.5,0 0,28.35 -42.525,0 0,-8.5 -28.35,0 0,8.5 -28.35,0 0,-8.5 -28.325,0 0,8.5 -28.35,0 0,-8.5 -28.35,0 0,8.5 -28.35,0 0,-8.5 -28.35,0 0,8.5 -28.35,0 0,-8.5 -28.35,0 0,8.5 -28.325,0 0,-8.5 -28.35,0 0,8.5 -42.525,0 z"
         id="rect6720-3" />
      <path
         sodipodi:type="arc"
         style="fill:none;stroke:#ff0000;stroke-width:0.38008934;stroke-miterlimit:4;stroke-opacity:1;stroke-dasharray:none"
         id="path6716-4"
         sodipodi:cx="95.812965"
         sodipodi:cy="110.87279"
         sodipodi:rx="7.4246211"
         sodipodi:ry="7.4246211"
         d="m 103.23759,110.87279 c 0,4.1005 -3.32412,7.42462 -7.424625,7.42462 -4.100505,0 -7.424621,-3.32412 -7.424621,-7.42462 0,-4.10051 3.324116,-7.42462 7.424621,-7.42462 4.100505,0 7.424625,3.32411 7.424625,7.42462 z"
         transform="matrix(0.74452268,0,0,-0.74452268,1027.1589,-2804.8961)" />
      <path
         sodipodi:type="arc"
         style="fill:none;stroke:#ff0000;stroke-width:0.38008934;stroke-miterlimit:4;stroke-opacity:1;stroke-dasharray:none"
         id="path6716-9-5"
         sodipodi:cx="95.812965"
         sodipodi:cy="110.87279"
         sodipodi:rx="7.4246211"
         sodipodi:ry="7.4246211"
         d="m 103.23759,110.87279 c 0,4.1005 -3.32412,7.42462 -7.424625,7.42462 -4.100505,0 -7.424621,-3.32412 -7.424621,-7.42462 0,-4.10051 3.324116,-7.42462 7.424621,-7.42462 4.100505,0 7.424625,3.32411 7.424625,7.42462 z"
         transform="matrix(0.74452268,0,0,-0.74452268,1027.1589,-3020.3292)" />
      <path
         sodipodi:type="arc"
         style="fill:none;stroke:#ff0000;stroke-width:0.38008934;stroke-miterlimit:4;stroke-opacity:1;stroke-dasharray:none"
         id="path6716-7-6"
         sodipodi:cx="95.812965"
         sodipodi:cy="110.87279"
         sodipodi:rx="7.4246211"
         sodipodi:ry="7.4246211"
         d="m 103.23759,110.87279 c 0,4.1005 -3.32412,7.42462 -7.424625,7.42462 -4.100505,0 -7.424621,-3.32412 -7.424621,-7.42462 0,-4.10051 3.324116,-7.42462 7.424621,-7.42462 4.100505,0 7.424625,3.32411 7.424625,7.42462 z"
         transform="matrix(0.74452268,0,0,-0.74452268,1384.3242,-2804.8961)" />
      <path
         sodipodi:type="arc"
         style="fill:none;stroke:#ff0000;stroke-width:0.38008934;stroke-miterlimit:4;stroke-opacity:1;stroke-dasharray:none"
         id="path6716-9-3-20"
         sodipodi:cx="95.812965"
         sodipodi:cy="110.87279"
         sodipodi:rx="7.4246211"
         sodipodi:ry="7.4246211"
         d="m 103.23759,110.87279 c 0,4.1005 -3.32412,7.42462 -7.424625,7.42462 -4.100505,0 -7.424621,-3.32412 -7.424621,-7.42462 0,-4.10051 3.324116,-7.42462 7.424621,-7.42462 4.100505,0 7.424625,3.32411 7.424625,7.42462 z"
         transform="matrix(0.74452268,0,0,-0.74452268,1384.3242,-3020.3292)" />
      <path
         inkscape:connector-curvature="0"
         style="fill:none;fill-opacity:1;stroke:#ff0000;stroke-opacity:1;stroke-width:0.28346457;stroke-miterlimit:4;stroke-dasharray:none"
         d="m 1067.3394,-2322.282 0,-28.35 8.5,0 0,-28.35 -8.5,0 0,-28.325 8.5,0 0,-28.35 -8.5,0 0,-28.35 8.5,0 0,-28.35 -8.5,0 0,-28.35 8.5,0 0,-28.35 -8.5,0 0,-28.35 42.525,0 0,8.525 28.35,0 0,-8.525 28.325,0 0,8.525 28.35,0 0,-8.525 28.35,0 0,8.525 28.35,0 0,-8.525 28.35,0 0,8.525 28.35,0 0,-8.525 28.35,0 0,8.525 28.325,0 0,-8.525 28.35,0 0,8.525 28.35,0 0,-8.525 42.525,0 0,28.35 -8.5,0 0,28.35 8.5,0 0,28.35 -8.5,0 0,28.35 8.5,0 0,28.35 -8.5,0 0,28.35 8.5,0 0,28.325 -8.5,0 0,28.35 8.5,0 0,28.35 -42.525,0 0,-8.5 -28.35,0 0,8.5 -28.35,0 0,-8.5 -28.325,0 0,8.5 -28.35,0 0,-8.5 -28.35,0 0,8.5 -28.35,0 0,-8.5 -28.35,0 0,8.5 -28.35,0 0,-8.5 -28.35,0 0,8.5 -28.325,0 0,-8.5 -28.35,0 0,8.5 -42.525,0 z"
         id="rect6720-2" />
      <path
         sodipodi:type="arc"
         style="fill:none;stroke:#ff0000;stroke-width:0.38008934;stroke-miterlimit:4;stroke-opacity:1;stroke-dasharray:none"
         id="path6716-83"
         sodipodi:cx="95.812965"
         sodipodi:cy="110.87279"
         sodipodi:rx="7.4246211"
         sodipodi:ry="7.4246211"
         d="m 103.23759,110.87279 c 0,4.1005 -3.32412,7.42462 -7.424625,7.42462 -4.100505,0 -7.424621,-3.32412 -7.424621,-7.42462 0,-4.10051 3.324116,-7.42462 7.424621,-7.42462 4.100505,0 7.424625,3.32411 7.424625,7.42462 z"
         transform="matrix(0.74452268,0,0,-0.74452268,1015.8452,-2259.5754)" />
      <path
         sodipodi:type="arc"
         style="fill:none;stroke:#ff0000;stroke-width:0.38008934;stroke-miterlimit:4;stroke-opacity:1;stroke-dasharray:none"
         id="path6716-9-50"
         sodipodi:cx="95.812965"
         sodipodi:cy="110.87279"
         sodipodi:rx="7.4246211"
         sodipodi:ry="7.4246211"
         d="m 103.23759,110.87279 c 0,4.1005 -3.32412,7.42462 -7.424625,7.42462 -4.100505,0 -7.424621,-3.32412 -7.424621,-7.42462 0,-4.10051 3.324116,-7.42462 7.424621,-7.42462 4.100505,0 7.424625,3.32411 7.424625,7.42462 z"
         transform="matrix(0.74452268,0,0,-0.74452268,1015.8452,-2475.0085)" />
      <path
         sodipodi:type="arc"
         style="fill:none;stroke:#ff0000;stroke-width:0.38008934;stroke-miterlimit:4;stroke-opacity:1;stroke-dasharray:none"
         id="path6716-7-69"
         sodipodi:cx="95.812965"
         sodipodi:cy="110.87279"
         sodipodi:rx="7.4246211"
         sodipodi:ry="7.4246211"
         d="m 103.23759,110.87279 c 0,4.1005 -3.32412,7.42462 -7.424625,7.42462 -4.100505,0 -7.424621,-3.32412 -7.424621,-7.42462 0,-4.10051 3.324116,-7.42462 7.424621,-7.42462 4.100505,0 7.424625,3.32411 7.424625,7.42462 z"
         transform="matrix(0.74452268,0,0,-0.74452268,1373.0106,-2259.5754)" />
      <path
         sodipodi:type="arc"
         style="fill:none;stroke:#ff0000;stroke-width:0.38008934;stroke-miterlimit:4;stroke-opacity:1;stroke-dasharray:none"
         id="path6716-9-3-22"
         sodipodi:cx="95.812965"
         sodipodi:cy="110.87279"
         sodipodi:rx="7.4246211"
         sodipodi:ry="7.4246211"
         d="m 103.23759,110.87279 c 0,4.1005 -3.32412,7.42462 -7.424625,7.42462 -4.100505,0 -7.424621,-3.32412 -7.424621,-7.42462 0,-4.10051 3.324116,-7.42462 7.424621,-7.42462 4.100505,0 7.424625,3.32411 7.424625,7.42462 z"
         transform="matrix(0.74452268,0,0,-0.74452268,1373.0106,-2475.0085)" />
      <path
         inkscape:connector-curvature="0"
         style="fill:none;fill-opacity:1;stroke:#ff0000;stroke-opacity:1;stroke-width:0.28346457;stroke-miterlimit:4;stroke-dasharray:none"
         d="m 955.89354,-2318.5704 0,-8.5 -14.17496,0 0,-76.525 -8.5,0 0,-28.35 8.5,0 0,-85.05 -8.5,0 0,-28.35 8.5,0 0,-19.825 14.17496,0 0,-8.525 14.17504,0 0,8.525 14.17504,0 0,76.525 8.5,0 0,28.35 -8.5,0 0,85.025 8.5,0 0,28.35 -8.5,0 0,19.85 -14.17504,0 0,8.5 -14.17504,0 z"
         id="rect6997-0-02-4-7" />
      <path
         inkscape:connector-curvature="0"
         style="fill:none;fill-opacity:1;stroke:#ff0000;stroke-opacity:1;stroke-width:0.28346457;stroke-miterlimit:4;stroke-dasharray:none"
         d="m 1008.6935,-2316.5954 0,-0.025 14.1751,0 0,0.025 -14.1751,0 z m 14.1751,-0.025 0,-8.5 -14.1751,0 0,-19.825 -8.5,0 0,-28.35 8.5,0 0,-85.05 -8.5,0 0,-28.35 8.5,0 0,-76.525 14.1751,0 0,-8.5 14.15,0 0,8.5 14.1749,0 0,19.85 8.5251,0 0,28.325 -8.5251,0 0,85.05 8.5251,0 0,28.35 -8.5251,0 0,76.525 -14.1749,0 0,8.5 -14.15,0 z"
         id="rect6997-0-0-8-80-5" />
      <path
         inkscape:connector-curvature="0"
         style="fill:none;fill-opacity:1;stroke:#ff0000;stroke-opacity:1;stroke-width:0.28346457;stroke-miterlimit:4;stroke-dasharray:none"
         d="m 258.09361,-3015.7579 0,-8.5 -42.5,0 0,-14.175 8.5,0 0,-14.175 -8.5,0 0,-14.175 99.2,0 0,-8.5 28.34999,0 0,8.5 85.05,0 0,-8.5 28.325,0 0,8.5 85.05001,0 0,-8.5 28.35,0 0,8.5 42.52496,0 0,14.175 -8.5,0 0,14.175 8.5,0 0,14.175 -99.22497,0 0,8.5 -28.35,0 0,-8.5 -85.025,0 0,8.5 -28.35,0 0,-8.5 -85.04999,0 0,8.5 -28.35,0 z"
         id="rect6997-8-12-6-4" />
      <path
         inkscape:connector-curvature="0"
         style="fill:none;fill-opacity:1;stroke:#ff0000;stroke-opacity:1;stroke-width:0.28346457;stroke-miterlimit:4;stroke-dasharray:none"
         d="m 314.89361,-3085.3829 0,-8.525 -99.2,0 0,-14.175 8.5,0 0,-14.15 -8.5,0 0,-14.175 42.5,0 0,-8.525 28.35,0 0,8.525 85.04999,0 0,-8.525 28.35,0 0,8.525 85.025,0 0,-8.525 28.35,0 0,8.525 99.22497,0 0,14.175 -8.5,0 0,14.15 8.5,0 0,14.175 -42.52496,0 0,8.525 -28.35,0 0,-8.525 -85.05001,0 0,8.525 -28.325,0 0,-8.525 -85.05,0 0,8.525 -28.34999,0 z"
         id="rect6997-8-6-3-3-6" />
      <path
         inkscape:connector-curvature="0"
         style="fill:none;fill-opacity:1;stroke:#ff0000;stroke-opacity:1;stroke-width:0.28346457;stroke-miterlimit:4;stroke-dasharray:none"
         d="m -108.40639,-2937.8079 0,-8.5 -99.2,0 0,-14.175 8.5,0 0,-14.175 34.025,0 0,-8.5 28.35,0 0,8.5 85.024986,0 0,-8.5 28.35,0 0,8.5 85.050005,0 0,-8.5 28.325,0 0,8.5 90.724999,0 0,14.175 8.5,0 0,14.175 -42.525,0 0,8.5 -28.35,0 0,-8.5 -85.025004,0 0,8.5 -28.3500003,0 0,-8.5 -85.0499997,0 0,8.5 -28.349986,0 z"
         id="rect6997-8-1-9" />
      <path
         inkscape:connector-curvature="0"
         style="fill:none;fill-opacity:1;stroke:#ff0000;stroke-opacity:1;stroke-width:0.28346457;stroke-miterlimit:4;stroke-dasharray:none"
         d="m -163.95639,-2997.7579 0,-8.5 -42.525,0 0,-14.175 8.5,0 0,-14.175 90.725,0 0,-8.5 28.349986,0 0,8.5 85.0249997,0 0,-8.5 28.3500003,0 0,8.5 85.050004,0 0,-8.5 28.325,0 0,8.5 34.025,0 0,14.175 8.5,0 0,14.175 -99.199999,0 0,8.5 -28.35,0 0,-8.5 -85.050005,0 0,8.5 -28.35,0 0,-8.5 -85.024986,0 0,8.5 -28.35,0 z"
         id="rect6997-8-4-9" />
      <path
         inkscape:connector-curvature="0"
         style="fill:none;fill-opacity:1;stroke:#ff0000;stroke-opacity:1;stroke-width:0.28346457;stroke-miterlimit:4;stroke-dasharray:none"
         d="m -164.53139,-3050.3579 0,-8.525 -42.5,0 0,-14.175 8.5,0 0,-14.15 90.7,0 0,-8.525 28.349986,0 0,8.525 85.0249997,0 0,-8.525 28.3500003,0 0,8.525 85.050004,0 0,-8.525 28.35,0 0,8.525 34,0 0,14.15 8.525,0 0,14.175 -99.224999,0 0,8.525 -28.35,0 0,-8.525 -85.025005,0 0,8.525 -28.35,0 0,-8.525 -85.049986,0 0,8.525 -28.35,0 z"
         id="rect6997-8-1-5-2" />
      <path
         inkscape:connector-curvature="0"
         style="fill:none;fill-opacity:1;stroke:#ff0000;stroke-opacity:1;stroke-width:0.28346457;stroke-miterlimit:4;stroke-dasharray:none"
         d="m -106.70639,-3110.3329 0,-8.5 -99.2,0 0,-14.175 8.5,0 0,-14.175 34.025,0 0,-8.5 28.325,0 0,8.5 85.049986,0 0,-8.5 28.35,0 0,8.5 85.025005,0 0,-8.5 28.35,0 0,8.5 90.724999,0 0,14.175 8.5,0 0,14.175 -42.525,0 0,8.5 -28.35,0 0,-8.5 -85.025004,0 0,8.5 -28.3500003,0 0,-8.5 -85.0499997,0 0,8.5 -28.349986,0 z"
         id="rect6997-8-4-4-8" />
    </g>
  </g>
</svg>
